<?xml version="1.0" standalone="no"?>
<!DOCTYPE svg PUBLIC "-//W3C//DTD SVG 20010904//EN"
 "http://www.w3.org/TR/2001/REC-SVG-20010904/DTD/svg10.dtd">
<svg version="1.0" xmlns="http://www.w3.org/2000/svg"
 width="400.000000pt" height="400.000000pt" viewBox="0 0 400.000000 400.000000"
 preserveAspectRatio="xMidYMid meet">
<metadata>
Created by potrace 1.14, written by Peter Selinger 2001-2017
</metadata>
<g transform="translate(0.000000,400.000000) scale(0.100000,-0.100000)"
fill="#000000" stroke="none">
<path d="M1845 3993 c-84 -7 -254 -36 -345 -59 -618 -159 -1140 -624 -1363
-1214 -44 -116 -81 -239 -74 -246 3 -3 67 35 143 83 571 366 1119 638 1710
848 87 31 166 59 174 61 8 2 83 24 165 49 188 58 447 124 633 161 78 15 142
31 142 35 0 4 -60 36 -132 72 -191 95 -385 158 -568 187 -41 6 -86 14 -100 16
-30 6 -329 11 -385 7z"/>
<path d="M3200 3484 c-41 -7 -86 -15 -100 -18 -14 -2 -95 -18 -180 -36 -85
-17 -164 -33 -175 -36 -90 -18 -441 -119 -620 -179 -579 -193 -1093 -437
-1655 -783 -231 -143 -448 -290 -460 -312 -24 -45 8 -459 46 -578 2 -8 44 19
111 71 60 46 130 99 158 118 27 18 56 40 64 47 23 22 410 276 526 344 283 169
694 379 960 491 461 194 919 339 1410 446 170 36 314 64 343 64 6 0 12 6 12
12 0 19 -163 215 -243 293 -82 79 -77 78 -197 56z"/>
<path d="M3739 2896 c-3 -3 -27 -8 -54 -11 -189 -24 -773 -160 -823 -192 -42
-26 -132 -180 -258 -441 -69 -141 -130 -268 -137 -282 -37 -77 -121 -216 -161
-268 -52 -69 -107 -118 -376 -341 -107 -89 -204 -170 -215 -179 -11 -9 -45
-37 -75 -62 -30 -25 -57 -47 -60 -50 -3 -3 -39 -32 -80 -65 -41 -33 -84 -67
-95 -77 -84 -69 -285 -235 -355 -293 -47 -38 -127 -103 -177 -144 -106 -85
-110 -66 37 -165 234 -157 580 -281 875 -313 190 -21 500 -1 679 43 798 197
1383 835 1512 1649 21 134 24 427 5 560 -27 187 -88 397 -166 573 -22 48 -33
62 -50 62 -12 0 -24 -2 -26 -4z"/>
<path d="M2430 2565 c-19 -8 -98 -37 -175 -66 -589 -218 -1205 -550 -1761
-949 -71 -51 -131 -96 -134 -99 -3 -3 -48 -39 -101 -78 -53 -40 -102 -79 -108
-87 -21 -25 81 -235 196 -407 46 -69 183 -238 224 -276 l24 -21 330 270 c182
148 341 279 355 291 14 12 62 51 105 87 64 52 470 388 574 475 83 69 147 136
185 194 25 36 104 188 176 336 73 148 141 287 151 307 22 43 16 46 -41 23z"/>
</g>
</svg>
