<svg viewBox="0 0 22 22" version="1.1" xmlns="http://www.w3.org/2000/svg" xmlns:xlink="http://www.w3.org/1999/xlink">
    <g stroke="none" fill-rule="evenodd">
        <g>
            <path d="M19.2597167,10.1079917 C19.2597167,9.61610833 19.65755,9.21735833 20.1483333,9.21735833 C20.6392083,9.21735833 21.0370417,9.61610833 21.0370417,10.1079917 L21.0370417,11.0055 C21.0353917,13.821775 19.9397917,16.468375 17.952,18.4583667 C15.965675,20.4467083 13.3257667,21.5416667 10.5186583,21.5416667 L10.5125167,21.5416667 C7.7028875,21.5400167 5.06210833,20.4420333 3.07652583,18.4498417 C1.09093417,16.45765 -0.00158638333,13.8097667 1.7289427e-06,10.99395 C0.0016362775,8.17817 1.09725,5.5315425 3.08507833,3.54167 C5.07134833,1.55334667 7.71126583,0.458333333 10.5183833,0.458333333 L10.524525,0.458333333 C12.0071417,0.459151917 13.4453917,0.766193083 14.7995833,1.37093 C15.247925,1.57117583 15.4494083,2.0976725 15.2496667,2.54694917 C15.0498333,2.99622583 14.524675,3.19824083 14.0762417,2.997995 C12.95085,2.4954875 11.7556083,2.24029667 10.5236083,2.23960917 L10.5183833,2.23960917 C8.1855125,2.23960917 5.99191083,3.14944667 4.3411775,4.80187583 C2.68920667,6.45558833 1.7787,8.65501083 1.77736167,10.9949583 C1.77461167,15.8255167 5.6936275,19.7575583 10.513525,19.7603083 L10.5186583,19.7603083 C12.851575,19.7603083 15.0451583,18.850425 16.6958917,17.1980417 C18.3478167,15.544375 19.2583417,13.3450167 19.2597167,11.0050417 L19.2597167,10.1079917 Z M20.4829167,1.68982 C20.8299667,1.34203667 21.3926167,1.34203667 21.7396667,1.68982 C22.0868083,2.03764 22.0868083,2.601555 21.7396667,2.949375 L11.1470333,13.565475 C10.9734167,13.7393667 10.7459917,13.8263583 10.5185667,13.8263583 C10.2911417,13.8263583 10.0637167,13.7393667 9.89019167,13.565475 L7.00120667,10.6701833 C6.6541475,10.3223083 6.6541475,9.758375 7.00120667,9.41059167 C7.34822,9.06277167 7.91094333,9.06277167 8.25795667,9.41059167 L10.518475,11.6761333 L20.4829167,1.68982 Z"></path>
        </g>
    </g>
</svg>