<svg viewBox="0 0 23 23" version="1.1" xmlns="http://www.w3.org/2000/svg" xmlns:xlink="http://www.w3.org/1999/xlink">
    <defs></defs>
    <g stroke="none" fill-rule="evenodd">
        <g transform="translate(-1.000000, -1.000000)">
            <g transform="translate(13.000000, 13.000000) rotate(-45.000000) translate(-13.000000, -13.000000) translate(4.000000, 4.000000)">
                <path d="M8.93198052,-2.33008187 L8.93198052,-2.33008187 C9.57541486,-2.33008187 10.0970215,-1.80847528 10.0970215,-1.16504094 L10.0970215,18.252308 C10.0970215,18.8957424 9.57541486,19.4173489 8.93198052,19.4173489 L8.93198052,19.4173489 C8.28854617,19.4173489 7.76693958,18.8957424 7.76693958,18.252308 L7.76693958,-1.16504094 C7.76693958,-1.80847528 8.28854617,-2.33008187 8.93198052,-2.33008187 Z" fill-rule="nonzero" transform="translate(8.931981, 8.543634) scale(-1, 1) rotate(-315.000000) translate(-8.931981, -8.543634) "></path>
                <path d="M8.93198052,-2.33008187 L8.93198052,-2.33008187 C9.57541486,-2.33008187 10.0970215,-1.80847528 10.0970215,-1.16504094 L10.0970215,18.252308 C10.0970215,18.8957424 9.57541486,19.4173489 8.93198052,19.4173489 L8.93198052,19.4173489 C8.28854617,19.4173489 7.76693958,18.8957424 7.76693958,18.252308 L7.76693958,-1.16504094 C7.76693958,-1.80847528 8.28854617,-2.33008187 8.93198052,-2.33008187 Z" fill-rule="nonzero" transform="translate(8.931981, 8.543634) rotate(-315.000000) translate(-8.931981, -8.543634) "></path>
            </g>
        </g>
    </g>
</svg>
