<svg viewBox="0 0 22 22" version="1.1" xmlns="http://www.w3.org/2000/svg" xmlns:xlink="http://www.w3.org/1999/xlink">
    <g stroke="none" fill-rule="evenodd">
        <g transform="translate(2.000000, 2.000000)" fill-rule="nonzero">
            <path d="M9.16666667,0 C4.10666667,0 0,4.10666667 0,9.16666667 C0,14.2266667 4.10666667,18.3333333 9.16666667,18.3333333 L13.75,18.3333333 L13.75,16.5 L9.16666667,16.5 C5.18833333,16.5 1.83333333,13.145 1.83333333,9.16666667 C1.83333333,5.18833333 5.18833333,1.83333333 9.16666667,1.83333333 C13.145,1.83333333 16.5,5.18833333 16.5,9.16666667 L16.5,10.4775 C16.5,11.2016667 15.8491667,11.9166667 15.125,11.9166667 C14.4008333,11.9166667 13.75,11.2016667 13.75,10.4775 L13.75,9.16666667 C13.75,6.63666667 11.6966667,4.58333333 9.16666667,4.58333333 C6.63666667,4.58333333 4.58333333,6.63666667 4.58333333,9.16666667 C4.58333333,11.6966667 6.63666667,13.75 9.16666667,13.75 C10.4316667,13.75 11.5866667,13.2366667 12.4116667,12.4025 C13.0075,13.2183333 14.0341667,13.75 15.125,13.75 C16.9308333,13.75 18.3333333,12.2833333 18.3333333,10.4775 L18.3333333,9.16666667 C18.3333333,4.10666667 14.2266667,0 9.16666667,0 Z M9.16666667,11.9166667 C7.645,11.9166667 6.41666667,10.6883333 6.41666667,9.16666667 C6.41666667,7.645 7.645,6.41666667 9.16666667,6.41666667 C10.6883333,6.41666667 11.9166667,7.645 11.9166667,9.16666667 C11.9166667,10.6883333 10.6883333,11.9166667 9.16666667,11.9166667 Z"></path>
        </g>
    </g>
</svg>