<svg viewBox="0 0 24 24" version="1.1" xmlns="http://www.w3.org/2000/svg" xmlns:xlink="http://www.w3.org/1999/xlink">
    <g id="facebook" stroke="none" stroke-width="1">
            <!-- <path d="M12,0 C18.627417,0 24,5.372583 24,12 C24,18.627417 18.627417,24 12,24 C5.372583,24 0,18.627417 0,12 C0,5.372583 5.372583,0 12,0 Z M12,1.04347826 C5.94888013,1.04347826 1.04347826,5.94888013 1.04347826,12 C1.04347826,18.0511199 5.94888013,22.9565217 12,22.9565217 C18.0511199,22.9565217 22.9565217,18.0511199 22.9565217,12 C22.9565217,5.94888013 18.0511199,1.04347826 12,1.04347826 Z" class="social-circle"></path> -->
            <g id="fb-logo" class="social-logo" transform="translate(9.913043, 7.826087)">
                <path d="M3.51495604,0.00142481231 L2.63885246,0 C1.65469639,0 1.01850446,0.705662046 1.01850446,1.7976382 L1.01850446,2.62659401 L0.137569258,2.62659401 C0.0617568254,2.62659401 0,2.69299026 0,2.77534441 L0,3.9764612 C0,4.0584354 0.0617568254,4.1252116 0.137569258,4.1252116 L1.01850446,4.1252116 L1.01850446,7.15559742 C1.01850446,7.23757162 1.08026128,7.30434783 1.15642511,7.30434783 L2.30529532,7.30434783 C2.381547,7.30434783 2.44321597,7.23757162 2.44321597,7.15559742 L2.44321597,4.1252116 L3.47305277,4.1252116 C3.54930444,4.1252116 3.61070987,4.0584354 3.61070987,3.9764612 L3.61141265,2.77534441 C3.61141265,2.73601959 3.59665426,2.69821457 3.57091493,2.67000329 C3.5451756,2.64217196 3.51012443,2.62659401 3.47340416,2.62659401 L2.44321597,2.62659401 L2.44321597,1.92387658 C2.44321597,1.58619606 2.51771069,1.41474364 2.92435699,1.41474364 L3.51460465,1.41436369 C3.59076848,1.41436369 3.65217391,1.34758749 3.65217391,1.26561329 L3.65217391,0.150650155 C3.65217391,0.0682010161 3.59076848,0.00180476227 3.51495604,0.00142481231"></path>
            </g>
    </g>
</svg>
