<svg viewBox="0 0 22 22" version="1.1" xmlns="http://www.w3.org/2000/svg" xmlns:xlink="http://www.w3.org/1999/xlink">
    <g stroke="none" fill-rule="evenodd">
        <g transform="translate(2.000000, 1.000000)" fill-rule="nonzero">
            <path d="M9,0 L3.5,9 L14.5,9 L9,0 Z M9,3.84 L10.93,7 L7.06,7 L9,3.84 Z M14.5,11 C12.01,11 10,13.01 10,15.5 C10,17.99 12.01,20 14.5,20 C16.99,20 19,17.99 19,15.5 C19,13.01 16.99,11 14.5,11 Z M14.5,18 C13.12,18 12,16.88 12,15.5 C12,14.12 13.12,13 14.5,13 C15.88,13 17,14.12 17,15.5 C17,16.88 15.88,18 14.5,18 Z M0,19.5 L8,19.5 L8,11.5 L0,11.5 L0,19.5 Z M2,13.5 L6,13.5 L6,17.5 L2,17.5 L2,13.5 Z"></path>
        </g>
    </g>
</svg>