<svg viewBox="0 0 22 22" version="1.1" xmlns="http://www.w3.org/2000/svg" xmlns:xlink="http://www.w3.org/1999/xlink">
    <g stroke="none" fill-rule="evenodd">
        <g transform="translate(1.000000, 3.000000)" fill-rule="nonzero">
            <path d="M18.886175,0.407394167 L1.28044583,0.407394167 C0.573329167,0.407394167 0,0.980686667 0,1.68780333 L0,14.8121417 C0,15.5192583 0.573329167,16.0925417 1.28044583,16.0925417 L18.886175,16.0925417 C19.5932917,16.0925417 20.1666667,15.5192583 20.1666667,14.8121417 L20.1666667,1.68780333 C20.1666667,0.980686667 19.5933833,0.407394167 18.886175,0.407394167 Z M18.886175,1.68780333 L18.886175,11 L16.362775,8.70576667 C15.98355,8.36100833 15.400275,8.37485 15.0379167,8.73748333 L12.4840833,11.29095 L7.44854917,5.2761775 C7.0679125,4.82162083 6.37072333,4.81715667 5.98437583,5.26625 L1.28044583,10.7330667 L1.28044583,1.68780333 L18.886175,1.68780333 Z M13.444475,5.0489175 C13.444475,4.07642583 14.2324417,3.28832167 15.2049333,3.28832167 C16.1775167,3.28832167 16.965575,4.07642583 16.965575,5.0489175 C16.965575,6.02140917 16.1775167,6.80945833 15.2049333,6.80945833 C14.2325333,6.80955 13.444475,6.02140917 13.444475,5.0489175 Z"></path>
        </g>
    </g>
</svg>