<svg viewBox="0 0 24 24" version="1.1" xmlns="http://www.w3.org/2000/svg" xmlns:xlink="http://www.w3.org/1999/xlink">
  <g id="instagram" stroke="none" stroke-width="1">
    <g class="social-logo" transform="translate(8.347826, 7.826087)">
      <path d="M6.65635326,5.28864318 C6.65635326,6.0427934 6.0427934,6.65626685 5.28864318,6.65626685 L2.01566144,6.65626685 C1.26159763,6.65635326 0.648080973,6.0427934 0.648080973,5.28864318 L0.648080973,2.01574785 C0.648080973,1.26164083 1.26159763,0.648080973 2.01566144,0.648080973 L5.28859997,0.648080973 C6.0427502,0.648080973 6.65626685,1.26164083 6.65626685,2.01574785 L6.65626685,5.28864318 L6.65635326,5.28864318 Z M5.28859997,0 L2.01566144,0 C0.904245779,0 0,0.904288984 0,2.01574785 L0,5.28864318 C0,6.40014525 0.904245779,7.30434783 2.01566144,7.30434783 L5.28859997,7.30434783 C6.40010205,7.30434783 7.30434783,6.40010205 7.30434783,5.28864318 L7.30434783,2.01574785 C7.30443424,0.904288984 6.40010205,0 5.28859997,0 L5.28859997,0 Z"></path>
      <path d="M3.65217391,4.90644219 C2.96056586,4.90644219 2.3978466,4.34379785 2.3978466,3.65217391 C2.3978466,2.96050607 2.96052194,2.3978178 3.65217391,2.3978178 C4.34382588,2.3978178 4.90650123,2.96050607 4.90650123,3.65217391 C4.90650123,4.34379785 4.34382588,4.90644219 3.65217391,4.90644219 M3.65217391,1.73913043 C2.59730585,1.73913043 1.73913043,2.59732555 1.73913043,3.65221783 C1.73913043,4.70706619 2.59730585,5.56521739 3.65217391,5.56521739 C4.70704198,5.56521739 5.56521739,4.70706619 5.56521739,3.65221783 C5.56521739,2.59732555 4.70704198,1.73913043 3.65217391,1.73913043"></path>
      <path d="M5.47826087,1.2173913 C5.36403162,1.2173913 5.25181818,1.26363636 5.17114625,1.34466403 C5.09007905,1.42529644 5.04347826,1.53754941 5.04347826,1.65217391 C5.04347826,1.76644269 5.09011858,1.87865613 5.17114625,1.95968379 C5.25181818,2.04031621 5.36403162,2.08695652 5.47826087,2.08695652 C5.59288538,2.08695652 5.70474308,2.04031621 5.78577075,1.95968379 C5.86679842,1.87865613 5.91304348,1.76640316 5.91304348,1.65217391 C5.91304348,1.53754941 5.86679842,1.42529644 5.78577075,1.34466403 C5.70513834,1.26363636 5.59288538,1.2173913 5.47826087,1.2173913"></path>
    </g>
    <!-- <path d="M12,0 C18.627417,0 24,5.372583 24,12 C24,18.627417 18.627417,24 12,24 C5.372583,24 0,18.627417 0,12 C0,5.372583 5.372583,0 12,0 Z M12,1.04347826 C5.94888013,1.04347826 1.04347826,5.94888013 1.04347826,12 C1.04347826,18.0511199 5.94888013,22.9565217 12,22.9565217 C18.0511199,22.9565217 22.9565217,18.0511199 22.9565217,12 C22.9565217,5.94888013 18.0511199,1.04347826 12,1.04347826 Z" class="social-circle"></path> -->
  </g>
</svg>
