<svg viewBox="0 0 24 24" version="1.1" xmlns="http://www.w3.org/2000/svg" xmlns:xlink="http://www.w3.org/1999/xlink">
  <g id="linkedin" stroke="none" stroke-width="1">
    <g class="social-logo" transform="translate(9.391304, 7.826087)">
        <path d="M6.26086957,3.83853416 L6.26086957,6.26086957 L4.91896249,6.26086957 L4.91896249,4.00076758 C4.91896249,3.43301154 4.72487011,3.04554024 4.23914423,3.04554024 C3.86835412,3.04554024 3.64769667,3.3066675 3.55062136,3.55926418 C3.51522068,3.6495665 3.5061085,3.77525551 3.5061085,3.90166048 L3.5061085,6.26086957 L2.16375019,6.26086957 C2.16375019,6.26086957 2.18182899,2.43299863 2.16375019,2.03640266 L3.50597749,2.03640266 L3.50597749,2.63520393 C3.50325548,2.63968249 3.49971833,2.64451141 3.49715644,2.64885287 L3.50597749,2.64885287 L3.50597749,2.63520393 C3.68430551,2.34776896 4.00278064,1.93715846 4.71562692,1.93715846 C5.59879531,1.93715846 6.26086957,2.54094098 6.26086957,3.83853416 Z M0.759586244,0 C0.30036721,0 0,0.3152203 0,0.729745735 C0,1.13523789 0.291677158,1.46002463 0.741769454,1.46002463 L0.750736074,1.46002463 C1.21884895,1.46002463 1.50997297,1.13529882 1.50997297,0.729745735 C1.50115191,0.3152203 1.21884895,0 0.759586244,0 Z M0.0797243136,6.26086957 L1.42157316,6.26086957 L1.42157316,2.03640266 L0.0797243136,2.03640266 L0.0797243136,6.26086957 Z"></path>
    </g>
    <!-- <path d="M12,0 C18.627417,0 24,5.372583 24,12 C24,18.627417 18.627417,24 12,24 C5.372583,24 0,18.627417 0,12 C0,5.372583 5.372583,0 12,0 Z M12,1.04347826 C5.94888013,1.04347826 1.04347826,5.94888013 1.04347826,12 C1.04347826,18.0511199 5.94888013,22.9565217 12,22.9565217 C18.0511199,22.9565217 22.9565217,18.0511199 22.9565217,12 C22.9565217,5.94888013 18.0511199,1.04347826 12,1.04347826 Z" class="social-circle"></path> -->
  </g>
</svg>
