<svg viewBox="0 0 22 22" version="1.1" xmlns="http://www.w3.org/2000/svg" xmlns:xlink="http://www.w3.org/1999/xlink">
    <g stroke="none" fill-rule="evenodd">
        <g>
            <path d="M0,2.73717583 C0,1.22612417 1.23187167,0 2.75,0 C4.267175,0 5.49904667,1.22612417 5.5,2.73717583 C5.5,4.2482275 4.26812833,5.5 2.75,5.5 C1.23187167,5.5 0,4.2482275 0,2.73717583 Z M21.9946833,21.0833333 L21.9946833,21.0824167 L22,21.0824167 L22,13.2231917 C22,9.37841667 21.1782083,6.41666667 16.7157833,6.41666667 C14.5705083,6.41666667 13.1308833,7.60243 12.5432083,8.726575 L12.48115,8.726575 L12.48115,6.77560583 L8.25,6.77560583 L8.25,21.0824167 L12.655775,21.0824167 L12.655775,13.9982333 C12.655775,12.133 13.0067667,10.3293667 15.3000833,10.3293667 C17.5596667,10.3293667 17.5934,12.4579583 17.5934,14.1178583 L17.5934,21.0833333 L21.9946833,21.0833333 Z M0,7.33333333 L4.58333333,7.33333333 L4.58333333,21.0833333 L0,21.0833333 L0,7.33333333 Z"></path>
        </g>
    </g>
</svg>