<svg viewBox="0 0 20 20" version="1.1" xmlns="http://www.w3.org/2000/svg" xmlns:xlink="http://www.w3.org/1999/xlink">
    <g id="location" stroke="none" stroke-width="1" fill-rule="evenodd">
        <g transform="translate(2.000000, 0.000000)" fill-rule="nonzero">
            <path d="M8,10 C6.9,10 6,9.1 6,8 C6,6.9 6.9,6 8,6 C9.1,6 10,6.9 10,8 C10,9.1 9.1,10 8,10 Z M14,8.2 C14,4.57 11.35,2 8,2 C4.65,2 2,4.57 2,8.2 C2,10.54 3.95,13.64 8,17.34 C12.05,13.64 14,10.54 14,8.2 Z M8,0 C12.2,0 16,3.22 16,8.2 C16,11.52 13.33,15.45 8,20 C2.67,15.45 0,11.52 0,8.2 C0,3.22 3.8,0 8,0 Z"></path>
        </g>
    </g>
</svg>