<svg viewBox="0 0 24 24" version="1.1" xmlns="http://www.w3.org/2000/svg" xmlns:xlink="http://www.w3.org/1999/xlink">
    <g id="Mail" stroke="none" stroke-width="1" fill-rule="evenodd">
        <g transform="translate(6.000000, 8.000000)" fill-rule="nonzero">
            <path d="M11.2173916,1.34019499 L11.2173916,7.1815437 C11.2173916,7.43070076 10.9917747,7.6521737 10.7379556,7.6521737 L1.26204496,7.6521737 C1.00822592,7.6521737 0.782609,7.43070076 0.782609,7.1815437 L0.782609,1.34019499 C0.782609,1.09103794 1.00822592,0.869565 1.26204496,0.869565 L10.7379556,0.869565 C10.9917747,0.869565 11.2173916,1.09103794 11.2173916,1.34019499 Z M9.69447739,6.8493343 L7.21269126,4.71765728 L6.28202146,5.40976021 C6.11280876,5.54818079 5.88719184,5.54818079 5.68977704,5.40976021 L4.78730935,4.71765728 L2.30552322,6.8493343 L9.69447739,6.8493343 Z M7.8613399,4.21934317 L10.3713282,6.37870431 L10.3713282,2.30913909 L7.8613399,4.21934317 Z M1.60047034,6.37870431 L4.11045859,4.21934317 L1.60047034,2.30913909 L1.60047034,6.37870431 Z M2.13631053,1.6724044 L6.0000003,4.60692081 L9.86369008,1.6724044 L2.13631053,1.6724044 Z"></path>
        </g>
    </g>
</svg>
