<svg viewBox="0 0 22 22" version="1.1" xmlns="http://www.w3.org/2000/svg" xmlns:xlink="http://www.w3.org/1999/xlink">
    <g stroke="none" fill-rule="evenodd">
        <g transform="translate(2.000000, 2.000000)" fill-rule="nonzero">
            <path d="M3.6055525,2.037035 C3.66666667,2.9435175 3.8194475,3.82963167 4.06388583,4.675 L2.84166667,5.89721917 C2.42407,4.675 2.15926333,3.3814825 2.06759667,2.037035 L3.6055525,2.037035 Z M13.6481583,14.27965 C14.5138583,14.5240333 15.4,14.6768417 16.2963167,14.7379833 L16.2963167,16.255525 C14.9518417,16.1638583 13.6583333,15.8990333 12.4259667,15.4916667 L13.6481583,14.27965 Z M4.58333333,0 L1.0185175,0 C0.458333333,0 0,0.458333333 0,1.0185175 C0,10.5823667 7.75096667,18.3333333 17.314825,18.3333333 C17.875,18.3333333 18.3333333,17.875 18.3333333,17.314825 L18.3333333,13.760175 C18.3333333,13.2 17.875,12.7416667 17.314825,12.7416667 C16.0518417,12.7416667 14.819475,12.5379833 13.6786833,12.1611417 C13.5768417,12.12035 13.464825,12.110175 13.3629833,12.110175 C13.0981583,12.110175 12.8435083,12.2120167 12.639825,12.405525 L10.3990333,14.6463167 C7.51666667,13.169475 5.15370167,10.8166667 3.687035,7.9343 L5.92778083,5.6935175 C6.212965,5.40833333 6.2944475,5.01111417 6.18240333,4.65463167 C5.8055525,3.51388583 5.60185083,2.29166667 5.60185083,1.0185175 C5.60185083,0.458333333 5.1435175,0 4.58333333,0 Z"></path>
        </g>
    </g>
</svg>