<svg viewBox="0 0 22 22" version="1.1" xmlns="http://www.w3.org/2000/svg" xmlns:xlink="http://www.w3.org/1999/xlink">
    <g stroke="none" fill-rule="evenodd">
        <g>
            <path d="M4.9331975,0 L17.066775,0 C17.55765,0 17.9554833,0.397891083 17.9553917,0.888679917 L17.9553917,7.077895 L19.0890333,7.077895 C20.6942083,7.077895 22,8.38376 22,9.988825 L22,15.0445167 C22,16.6496 20.6941167,17.9553917 19.0890333,17.9553917 L17.9553917,17.9553917 L17.9553917,21.1112917 C17.9553917,21.602075 17.5575583,22 17.066775,22 L4.9331975,22 C4.44241417,22 4.04451667,21.602075 4.04451667,21.1112917 L4.04451667,17.9554833 L2.9109575,17.9554833 C1.305865,17.9554833 0,16.6496 0,15.0445167 L0,9.988825 C0,8.38376 1.305865,7.077895 2.9109575,7.077895 L4.04451667,7.077895 L4.04451667,0.888679917 C4.04451667,0.397891083 4.44241417,0 4.9331975,0 Z M19.0890333,16.1780667 L17.9553917,16.1780667 L17.9553917,13.0222583 C17.9554833,12.531475 17.55765,12.13355 17.066775,12.13355 L4.9331975,12.13355 C4.44241417,12.13355 4.04451667,12.5313833 4.04451667,13.0222583 L4.04451667,16.1781583 L2.9109575,16.1781583 C2.28589167,16.1781583 1.77739833,15.6695917 1.77739833,15.0446083 L1.77739833,9.98891667 C1.77739833,9.36384167 2.2859375,8.85533917 2.9109575,8.85533917 L19.0890333,8.85533917 C19.7141083,8.85533917 20.2225833,9.36384167 20.2225833,9.98891667 L20.2225833,15.0446083 C20.2225833,15.6695917 19.7140167,16.1780667 19.0890333,16.1780667 Z M5.82187833,7.077895 L16.1780667,7.077895 L16.1780667,1.77736167 L5.82187833,1.77736167 L5.82187833,7.077895 Z M5.82192417,20.222675 L16.1781583,20.222675 L16.1781583,13.9109667 L5.82192417,13.9109667 L5.82192417,20.222675 Z"></path>
        </g>
    </g>
</svg>