<svg viewBox="0 0 22 22" version="1.1" xmlns="http://www.w3.org/2000/svg" xmlns:xlink="http://www.w3.org/1999/xlink">
    <g stroke="none" fill-rule="evenodd">
        <g transform="translate(5.000000, 0.000000)">
            <path d="M4.819925,12.4310083 C4.49162083,13.2141167 4.3274825,14.2648917 4.3274825,15.5833333 L7.71485,15.5833333 C7.73474167,14.1558083 8.07299167,13.070475 8.72969167,12.3266917 L10.565225,10.5274583 C12.077175,8.96126917 12.8333333,7.3703025 12.8333333,5.75460417 C12.8333333,3.94045667 12.2738917,2.52783667 11.1547333,1.516735 C10.0354833,0.50563425 8.47595833,0 6.47634167,0 C4.53632667,0 2.9770125,0.51078225 1.79801417,1.53168583 C0.61919,2.5525775 0.0196808333,3.94045667 0,5.69498417 L3.62605833,5.69498417 C3.62605833,4.87617167 3.88728083,4.22707083 4.40955167,3.7484975 C4.93185,3.26993333 5.62054167,3.03048167 6.47634167,3.03048167 C7.37174167,3.03048167 8.050625,3.275415 8.51335833,3.7647775 C8.97590833,4.254305 9.207275,4.96385083 9.207275,5.89325917 C9.207275,6.59533417 9.00808333,7.2480925 8.61025,7.85103 C8.35156667,8.24740583 7.73721667,8.91427167 6.7672,9.85095833 C5.79736667,10.7878833 5.14818333,11.6477167 4.819925,12.4310083 Z M5.94999167,17.4166667 C5.250025,17.4166667 4.69425,17.6304333 4.2833175,18.0576917 C3.87215583,18.485225 3.66666667,19.0441167 3.66666667,19.7349167 C3.66666667,20.378875 3.86376833,20.9174167 4.25835667,21.3503583 C4.65254167,21.7834833 5.21665833,22 5.94999167,22 C6.68323333,22 7.24991667,21.7834833 7.64995,21.3503583 C8.04989167,20.9174167 8.25,20.378875 8.25,19.7349167 C8.25,19.0677667 8.0443,18.514375 7.63335833,18.0753833 C7.22195833,17.6363917 6.66086667,17.4166667 5.94999167,17.4166667 Z"></path>
        </g>
    </g>
</svg>