<svg viewBox="0 0 22 22" version="1.1" xmlns="http://www.w3.org/2000/svg" xmlns:xlink="http://www.w3.org/1999/xlink">
    <g stroke="none" fill-rule="evenodd">
        <g transform="translate(1.000000, 1.000000)" fill-rule="nonzero">
            <path d="M17.6407,10.98 C17.6818,10.66 17.7127,10.34 17.7127,10 C17.7127,9.66 17.6818,9.34 17.6407,9.02 L19.8099,7.37 C20.0052,7.22 20.0566,6.95 19.9333,6.73 L17.8772,3.27 C17.7846,3.11 17.6099,3.02 17.4248,3.02 C17.3631,3.02 17.3014,3.03 17.25,3.05 L14.6902,4.05 C14.1556,3.65 13.5799,3.32 12.9528,3.07 L12.5621,0.42 C12.5313,0.18 12.3154,0 12.0584,0 L7.94616,0 C7.68915,0 7.47326,0.18 7.44242,0.42 L7.05176,3.07 C6.42464,3.32 5.84894,3.66 5.31435,4.05 L2.7545,3.05 C2.69281,3.03 2.63113,3.02 2.56945,3.02 C2.39468,3.02 2.21991,3.11 2.12738,3.27 L0.07128,6.73 C-0.06237,6.95 -0.00069,7.22 0.19464,7.37 L2.36384,9.02 C2.32271,9.34 2.29187,9.67 2.29187,10 C2.29187,10.33 2.32271,10.66 2.36384,10.98 L0.19464,12.63 C-0.00069,12.78 -0.05209,13.05 0.07128,13.27 L2.12738,16.73 C2.21991,16.89 2.39468,16.98 2.57973,16.98 C2.64141,16.98 2.70309,16.97 2.7545,16.95 L5.31435,15.95 C5.84894,16.35 6.42464,16.68 7.05176,16.93 L7.44242,19.58 C7.47326,19.82 7.68915,20 7.94616,20 L12.0584,20 C12.3154,20 12.5313,19.82 12.5621,19.58 L12.9528,16.93 C13.5799,16.68 14.1556,16.34 14.6902,15.95 L17.25,16.95 C17.3117,16.97 17.3734,16.98 17.4351,16.98 C17.6099,16.98 17.7846,16.89 17.8772,16.73 L19.9333,13.27 C20.0566,13.05 20.0052,12.78 19.8099,12.63 L17.6407,10.98 Z M15.6052,9.27 C15.6463,9.58 15.6566,9.79 15.6566,10 C15.6566,10.21 15.636,10.43 15.6052,10.73 L15.4612,11.86 L16.3762,12.56 L17.4865,13.4 L16.7669,14.61 L15.4612,14.1 L14.3921,13.68 L13.4668,14.36 C13.0247,14.68 12.6032,14.92 12.1817,15.09 L11.092,15.52 L10.9275,16.65 L10.7219,18 L9.2826,18 L9.0873,16.65 L8.9228,15.52 L7.83308,15.09 C7.39102,14.91 6.97979,14.68 6.56857,14.38 L5.63304,13.68 L4.54331,14.11 L3.23768,14.62 L2.51804,13.41 L3.62834,12.57 L4.54331,11.87 L4.39938,10.74 C4.36854,10.43 4.34798,10.2 4.34798,10 C4.34798,9.8 4.36854,9.57 4.39938,9.27 L4.54331,8.14 L3.62834,7.44 L2.51804,6.6 L3.23768,5.39 L4.54331,5.9 L5.61248,6.32 L6.53773,5.64 C6.97979,5.32 7.4013,5.08 7.8228,4.91 L8.9125,4.48 L9.077,3.35 L9.2826,2 L10.7116,2 L10.907,3.35 L11.0714,4.48 L12.1612,4.91 C12.6032,5.09 13.0145,5.32 13.4257,5.62 L14.3612,6.32 L15.451,5.89 L16.7566,5.38 L17.4762,6.59 L16.3762,7.44 L15.4612,8.14 L15.6052,9.27 Z M10.0023,6 C7.73027,6 5.89006,7.79 5.89006,10 C5.89006,12.21 7.73027,14 10.0023,14 C12.2743,14 14.1145,12.21 14.1145,10 C14.1145,7.79 12.2743,6 10.0023,6 Z M10.0023,12 C8.8714,12 7.94616,11.1 7.94616,10 C7.94616,8.9 8.8714,8 10.0023,8 C11.1331,8 12.0584,8.9 12.0584,10 C12.0584,11.1 11.1331,12 10.0023,12 Z"></path>
        </g>
    </g>
</svg>