<svg viewBox="0 0 24 24" version="1.1" xmlns="http://www.w3.org/2000/svg" xmlns:xlink="http://www.w3.org/1999/xlink">
  <g id="twitter" stroke="none" stroke-width="1">
    <!-- <path d="M12,0 C18.627417,0 24,5.372583 24,12 C24,18.627417 18.627417,24 12,24 C5.372583,24 0,18.627417 0,12 C0,5.372583 5.372583,0 12,0 Z M12,1.04347826 C5.94888013,1.04347826 1.04347826,5.94888013 1.04347826,12 C1.04347826,18.0511199 5.94888013,22.9565217 12,22.9565217 C18.0511199,22.9565217 22.9565217,18.0511199 22.9565217,12 C22.9565217,5.94888013 18.0511199,1.04347826 12,1.04347826 Z" class="social-circle"></path> -->
    <g class="social-logo" transform="translate(8.347826, 8.347826)">
      <path d="M7.82608696,0.740759386 C7.53804301,0.866463169 7.22897601,0.951714037 6.90424402,0.989774035 C7.23581745,0.794222221 7.48962861,0.484049616 7.60992292,0.115590555 C7.29889939,0.296684102 6.95558681,0.428181267 6.58978059,0.499465048 C6.29685172,0.191697955 5.88018864,0 5.41803954,0 C4.53141405,0 3.81252541,0.708014186 3.81252541,1.58074932 C3.81252541,1.70452618 3.82670702,1.82541893 3.85409837,1.94102208 C2.52000412,1.87502791 1.33702265,1.24552664 0.545269433,0.288976386 C0.406867672,0.522097019 0.328133528,0.793731043 0.328133528,1.08368979 C0.328133528,1.63228523 0.611778493,2.11633484 1.04213725,2.39953044 C0.779029406,2.39086556 0.531573759,2.31958178 0.314936576,2.20109453 L0.314936576,2.22084241 C0.314936576,2.98665187 0.868530831,3.62578779 1.60257295,3.77125204 C1.46808424,3.80689393 1.32626815,3.82664181 1.17955436,3.82664181 C1.07588411,3.82664181 0.975628193,3.81652858 0.877328799,3.79725929 C1.0817409,4.42580339 1.67446565,4.882876 2.37673023,4.89540734 C1.82753496,5.31925616 1.13505301,5.57115491 0.382916227,5.57115491 C0.253325222,5.57115491 0.125677955,5.56344719 0,5.5494801 C0.710576609,5.99885759 1.55417134,6.26086957 2.46084801,6.26086957 C5.41415207,6.26086957 7.02847696,3.85169188 7.02847696,1.76233405 L7.02309332,1.55763877 C7.33851583,1.33606711 7.61139351,1.05768254 7.82608696,0.740759386 Z"></path>
    </g>
  </g>
</svg>
