<svg viewBox="0 0 22 22" version="1.1" xmlns="http://www.w3.org/2000/svg" xmlns:xlink="http://www.w3.org/1999/xlink">
    <g stroke="none" fill-rule="evenodd">
        <g transform="translate(2.000000, 2.000000)" fill-rule="nonzero">
            <path d="M9.16666667,2.29166667 C10.4270833,2.29166667 11.4583333,3.32291667 11.4583333,4.58333333 C11.4583333,5.84375 10.4270833,6.875 9.16666667,6.875 C7.90625,6.875 6.875,5.84375 6.875,4.58333333 C6.875,3.32291667 7.90625,2.29166667 9.16666667,2.29166667 Z M9.16666667,13.75 C12.2604167,13.75 15.8125,15.228125 16.0416667,16.0416667 L2.29166667,16.0416667 C2.55520833,15.2166667 6.084375,13.75 9.16666667,13.75 Z M9.16666667,0 C6.634375,0 4.58333333,2.05104167 4.58333333,4.58333333 C4.58333333,7.115625 6.634375,9.16666667 9.16666667,9.16666667 C11.6989583,9.16666667 13.75,7.115625 13.75,4.58333333 C13.75,2.05104167 11.6989583,0 9.16666667,0 Z M9.16666667,11.4583333 C6.10729167,11.4583333 0,12.99375 0,16.0416667 L0,18.3333333 L18.3333333,18.3333333 L18.3333333,16.0416667 C18.3333333,12.99375 12.2260417,11.4583333 9.16666667,11.4583333 Z"></path>
        </g>
    </g>
</svg>