<svg viewBox="0 0 22 22" version="1.1" xmlns="http://www.w3.org/2000/svg" xmlns:xlink="http://www.w3.org/1999/xlink">
    <g stroke="none" fill-rule="evenodd">
        <g>
            <path d="M11,0 C13.9381917,0 16.7005667,1.14421083 18.7781917,3.22183583 C20.8558167,5.29942417 22,8.06179917 22,11 C22,13.9381917 20.8558167,16.7005667 18.7781917,18.7781917 C16.7005667,20.8558167 13.9381917,22 11,22 C8.06179917,22 5.29942417,20.8558167 3.22183583,18.7781917 C1.14421083,16.7005667 0,13.9381917 0,11 C0,8.06179917 1.14421083,5.29942417 3.22183583,3.22183583 C5.29946083,1.14425667 8.06179917,0 11,0 Z M1.83333333,11 C1.83333333,16.0545 5.94550917,20.1666667 11,20.1666667 C16.0545,20.1666667 20.1666667,16.0545 20.1666667,11 C20.1666667,5.94550917 16.0545,1.83333333 11,1.83333333 C5.94550917,1.83333333 1.83333333,5.94550917 1.83333333,11 Z M11,5.53768417 C10.52535,5.53768417 10.140625,5.9224275 10.140625,6.39705917 L10.140625,11.93115 C10.140625,12.4058 10.52535,12.790525 11,12.790525 C11.47465,12.790525 11.859375,12.4058 11.859375,11.93115 L11.859375,6.39705917 C11.859375,5.9224275 11.47465,5.53768417 11,5.53768417 Z M11,16.163125 C11.64075,16.163125 12.1601333,15.6437417 12.1601333,15.0029917 C12.1601333,14.3622417 11.64075,13.8427667 11,13.8427667 C10.35925,13.8427667 9.83986667,14.3622417 9.83986667,15.0029917 C9.83986667,15.6437417 10.35925,16.163125 11,16.163125 Z"></path>
        </g>
    </g>
</svg>