<svg viewBox="0 0 22 22" version="1.1" xmlns="http://www.w3.org/2000/svg" xmlns:xlink="http://www.w3.org/1999/xlink">
    <g stroke="none" fill-rule="evenodd">
        <g transform="translate(0.000000, 3.000000)">
            <path d="M19.607775,0.504579167 C20.5501083,0.776425833 21.29325,1.57226667 21.5467083,2.58185583 C22.0180583,4.42583167 21.9999083,8.26943333 21.9999083,8.26943333 C21.9999083,8.26943333 21.9999083,12.0934 21.5469833,13.93755 C21.29325,14.9469833 20.5502,15.7428333 19.607775,16.0145333 C17.8861833,16.5 11,16.5 11,16.5 C11,16.5 4.13171917,16.5 2.39215167,15.9952833 C1.4496625,15.7234 0.706837083,14.92755 0.453052417,13.9181167 C0,12.0934 0,8.25 0,8.25 C0,8.25 0,4.42583167 0.453052417,2.58185583 C0.7065685,1.57241333 1.467785,0.757010833 2.39202333,0.485448333 C4.11359667,0 10.999725,0 10.999725,0 C10.999725,0 17.8861833,0 19.607775,0.504579167 Z M14.6666667,8.25 L9.16666667,4.58333333 L9.16666667,11.9166667 L14.6666667,8.25 Z"></path>
        </g>
    </g>
</svg>