<svg viewBox="0 0 22 22" version="1.1" xmlns="http://www.w3.org/2000/svg" xmlns:xlink="http://www.w3.org/1999/xlink">
    <g stroke="none" fill-rule="evenodd">
        <g transform="translate(0.000000, 3.000000)" fill="#FFFFFF">
            <path d="M19.607774,0.489288889 C20.5501073,0.752897778 21.2932489,1.52462222 21.5467072,2.50361778 C22.0180572,4.29171556 21.9999072,8.01884444 21.9999072,8.01884444 C21.9999072,8.01884444 21.9999072,11.7269333 21.5469822,13.5152 C21.2932489,14.4940444 20.5501989,15.2657778 19.607774,15.5292444 C17.8861824,16 10.9999994,16 10.9999994,16 C10.9999994,16 4.13171895,16 2.39215154,15.5105778 C1.44966243,15.2469333 0.706837047,14.4752 0.453052393,13.4963556 C0,11.7269333 0,8 0,8 C0,8 0,4.29171556 0.453052393,2.50361778 C0.706568464,1.52476444 1.46778492,0.734071111 2.39202321,0.470737778 C4.11359645,0 10.9997244,0 10.9997244,0 C10.9997244,0 17.8861824,0 19.607774,0.489288889 Z M14.6666659,8 L9.16666619,4.44444444 L9.16666619,11.5555556 L14.6666659,8 Z"></path>
        </g>
    </g>
</svg>