<svg viewBox="0 0 22 22" version="1.1" xmlns="http://www.w3.org/2000/svg" xmlns:xlink="http://www.w3.org/1999/xlink">
    <g stroke="none" fill-rule="evenodd">
        <g>
            <path d="M16.86025,2.89278 C14.9948333,1.02733583 12.5146083,0 9.87653333,0 C7.23837583,0 4.75822417,1.02733583 2.89278,2.89278 C1.02733583,4.75817833 0,7.23837583 0,9.87653333 C0,12.5146083 1.02733583,14.9948333 2.89278,16.86025 C4.75817833,18.725575 7.2384125,19.752975 9.87653333,19.752975 C12.2161417,19.752975 14.4316333,18.9449333 16.2041917,17.4609417 L20.4829167,21.7396667 C20.6564417,21.9132833 20.8838667,22 21.1112917,22 C21.3387167,22 21.5662333,21.9132833 21.7397583,21.7396667 C22.0867167,21.3926167 22.0867167,20.829875 21.7396667,20.482825 L17.4609417,16.2041917 C18.9449333,14.4316333 19.752975,12.2161417 19.752975,9.87653333 C19.752975,7.23837583 18.7256667,4.75817833 16.86025,2.89278 Z M1.7773525,9.87653333 C1.7773525,14.3424417 5.4106525,17.97565 9.87653333,17.97565 C14.34235,17.97565 17.97565,14.3424417 17.97565,9.87653333 C17.97565,5.41061583 14.3424417,1.7773525 9.87653333,1.7773525 C5.41061583,1.7773525 1.7773525,5.41061583 1.7773525,9.87653333 Z M9.87653333,5.61737917 C9.38575,5.61737917 8.98784333,6.0152675 8.98784333,6.50606 L8.98784333,8.98784333 L6.50606,8.98784333 C6.0152675,8.98784333 5.61737917,9.38575 5.61737917,9.87653333 C5.61737917,10.3673167 6.0152675,10.7652417 6.50606,10.7652417 L8.98784333,10.7652417 L8.98784333,13.2469333 C8.98784333,13.7378083 9.38575,14.1356417 9.87653333,14.1356417 C10.3673167,14.1356417 10.7652417,13.7377167 10.7652417,13.2469333 L10.7652417,10.7652417 L13.2469333,10.7652417 C13.7378083,10.7652417 14.1356417,10.3673167 14.1356417,9.87653333 C14.1356417,9.38575 13.7378083,8.98784333 13.2469333,8.98784333 L10.7652417,8.98784333 L10.7652417,6.50606 C10.7652417,6.0152675 10.3673167,5.61737917 9.87653333,5.61737917 Z"></path>
        </g>
    </g>
</svg>