<svg viewBox="0 0 22 22" version="1.1" xmlns="http://www.w3.org/2000/svg" xmlns:xlink="http://www.w3.org/1999/xlink">
    <g stroke="none" fill-rule="evenodd">
        <g>
            <path d="M9.87653333,0 C12.5146083,0 14.994925,1.02733583 16.86025,2.89278 C18.7257583,4.7581875 19.7530667,7.238385 19.7530667,9.87653333 C19.7530667,12.2161417 18.9449333,14.4316333 17.4609417,16.2041917 L21.7397583,20.4829167 C22.0867167,20.8299667 22.0867167,21.3926167 21.7397583,21.7397583 C21.5662333,21.9132833 21.3388083,22 21.1113833,22 C20.8839583,22 20.6564417,21.9132833 20.4829167,21.7397583 L16.2041917,17.4609417 C14.4316333,18.945025 12.2161417,19.7530667 9.87653333,19.7530667 C7.23843083,19.7530667 4.7581875,18.7256667 2.89278,16.86025 C1.02733583,14.994925 0,12.5146083 0,9.87653333 C0,7.238385 1.02733583,4.7581875 2.89278,2.89278 C4.75823333,1.02733583 7.238385,0 9.87653333,0 Z M9.87653333,17.9757417 C5.41067083,17.9757417 1.77736167,14.3424417 1.77736167,9.87653333 C1.77736167,5.410625 5.410625,1.77736167 9.87653333,1.77736167 C14.3424417,1.77736167 17.97565,5.410625 17.9757417,9.87653333 C17.9757417,14.3424417 14.3424417,17.9757417 9.87653333,17.9757417 Z M13.2469333,8.98786167 L6.50606917,8.98786167 C6.01527667,8.98786167 5.61738833,9.38575 5.61738833,9.87653333 C5.61738833,10.3673167 6.01527667,10.7652417 6.50606917,10.7652417 L13.2469333,10.7652417 C13.7378083,10.7652417 14.1356417,10.3673167 14.1356417,9.87653333 C14.1356417,9.38575 13.7378083,8.98786167 13.2469333,8.98786167 Z"></path>
        </g>
    </g>
</svg>