<?xml version="1.0" encoding="UTF-8"?>
<svg width="1170px" height="93px" viewBox="0 0 1170 93" version="1.1" xmlns="http://www.w3.org/2000/svg" xmlns:xlink="http://www.w3.org/1999/xlink">
    <!-- Generator: Sketch 51.3 (57544) - http://www.bohemiancoding.com/sketch -->
    <title>motif fleches</title>
    <desc>Created with Sketch.</desc>
    <defs>
        <path d="M47.24,58.4911 L13.07,92.4812 L0.75,80.2305 L34.924,46.2404 L0.75,12.2504 L13.07,-0.000356 L47.24,33.9897 L59.555,46.2404 L47.24,58.4911 Z M93.531,58.4911 L59.361,92.4812 L47.045,80.2305 L81.215,46.2404 L47.045,12.2504 L59.361,-0.000356 L93.531,33.9897 L105.846,46.2404 L93.531,58.4911 Z M105.644,92.4812 L139.822,58.4911 L152.13,46.2404 L139.822,33.9897 L105.644,-0.000348 L93.336,12.2504 L127.506,46.2404 L93.336,80.2305 L105.644,92.4812 Z M186.103,58.4911 L151.933,92.4812 L139.618,80.2305 L173.788,46.2404 L139.618,12.2504 L151.933,-0.000347 L186.103,33.9897 L198.419,46.2404 L186.103,58.4911 Z M198.224,92.4812 L232.394,58.4912 L244.71,46.2404 L232.394,33.9897 L198.224,-0.000339 L185.909,12.2504 L220.079,46.2404 L185.909,80.2305 L198.224,92.4812 Z M278.685,58.4912 L244.515,92.4812 L232.2,80.2305 L266.37,46.2404 L232.2,12.2504 L244.515,-0.000339 L278.685,33.9897 L291.001,46.2405 L278.685,58.4912 Z M290.316,92.4813 L324.486,58.4912 L336.802,46.2405 L324.486,33.9898 L290.316,-0.000308 L278.001,12.2504 L312.17,46.2405 L278,80.2305 L290.316,92.4813 Z M370.776,58.4912 L336.606,92.4812 L324.291,80.2305 L358.461,46.2405 L324.291,12.2504 L336.606,-0.00033 L370.776,33.9898 L383.092,46.2405 L370.776,58.4912 Z M382.89,92.4812 L417.068,58.4912 L429.375,46.2405 L417.068,33.9898 L382.89,-0.000322 L370.582,12.2504 L404.752,46.2405 L370.582,80.2305 L382.89,92.4812 Z M463.35,58.4912 L429.18,92.4812 L416.865,80.2305 L451.035,46.2405 L416.865,12.2504 L429.18,-0.000314 L463.35,33.9898 L475.666,46.2405 L463.35,58.4912 Z M475.471,92.4813 L509.641,58.4912 L521.956,46.2405 L509.641,33.9898 L475.471,-0.000306 L463.155,12.2504 L497.325,46.2405 L463.155,80.2305 L475.471,92.4813 Z M555.931,58.4912 L521.761,92.4813 L509.445,80.2306 L543.615,46.2405 L509.445,12.2504 L521.761,-0.000298 L555.931,33.9898 L568.246,46.2405 L555.931,58.4912 Z M568.051,92.4813 L602.221,58.4912 L614.537,46.2405 L602.221,33.9898 L568.051,-0.00029 L555.736,12.2504 L589.906,46.2405 L555.736,80.2306 L568.051,92.4813 Z M648.505,58.4912 L614.335,92.4813 L602.019,80.2306 L636.197,46.2405 L602.019,12.2504 L614.335,-0.000282 L648.505,33.9898 L660.82,46.2405 L648.505,58.4912 Z M660.625,92.4813 L694.795,58.4912 L707.111,46.2405 L694.795,33.9898 L660.625,-0.000274 L648.31,12.2504 L682.48,46.2405 L648.31,80.2306 L660.625,92.4813 Z M741.085,58.4912 L706.915,92.4813 L694.6,80.2306 L728.77,46.2405 L694.6,12.2504 L706.915,-0.000266 L741.085,33.9898 L753.401,46.2405 L741.085,58.4912 Z M753.205,92.4813 L787.375,58.4912 L799.69,46.2405 L787.375,33.9898 L753.205,-0.000258 L740.889,12.2504 L775.059,46.2405 L740.889,80.2306 L753.205,92.4813 Z M833.666,58.4912 L799.496,92.4813 L787.181,80.2306 L821.351,46.2405 L787.181,12.2505 L799.496,-0.000249 L833.666,33.9898 L845.982,46.2405 L833.666,58.4912 Z M845.777,92.4813 L879.947,58.4913 L892.262,46.2405 L879.947,33.9898 L845.777,-0.000241 L833.461,12.2505 L867.631,46.2405 L833.461,80.2306 L845.777,92.4813 Z M926.241,58.4913 L892.071,92.4813 L879.755,80.2306 L913.925,46.2406 L879.755,12.2505 L892.071,-0.000233 L926.241,33.9899 L938.5564,46.2406 L926.241,58.4913 Z M938.3602,92.4813 L972.5303,58.4913 L984.8458,46.2406 L972.5303,33.9899 L938.3602,-0.000225 L926.045,12.2505 L960.2147,46.2406 L926.045,80.2306 L938.3602,92.4813 Z M1018.8215,58.4913 L984.6515,92.4813 L972.336,80.2306 L1006.506,46.2406 L972.336,12.2505 L984.6515,-0.000217 L1018.8215,33.9899 L1031.13709,46.2406 L1018.8215,58.4913 Z M1030.9342,92.4814 L1065.1041,58.4913 L1077.4198,46.2406 L1065.1041,33.9899 L1030.93422,-0.000209 L1018.6187,12.2505 L1052.7965,46.2406 L1018.6187,80.2306 L1030.9342,92.4814 Z M1111.3934,58.4913 L1077.2235,92.4814 L1064.908,80.2307 L1099.078,46.2406 L1064.908,12.2505 L1077.2235,-0.000201 L1111.3934,33.9899 L1123.7091,46.2406 L1111.3934,58.4913 Z M1123.5148,92.4814 L1157.685,58.4913 L1170,46.2406 L1157.685,33.9899 L1123.5148,-0.000193 L1111.1992,12.2505 L1145.369,46.2406 L1111.1992,80.2307 L1123.5148,92.4814 Z" id="path-1"></path>
    </defs>
    <g id="Page-1" stroke="none" stroke-width="1" fill="none" fill-rule="evenodd" opacity="0.5">
        <g id="motif-fleches">
            <g id="Group">
                <g id="Clipped">
                    <mask id="mask-2" fill="white">
                        <use xlink:href="#path-1"></use>
                    </mask>
                    <g id="Shape"></g>
                    <path d="M13.07,92.4812 L13.78,93.1902 L13.07,93.8917 L12.36,93.1902 L13.07,92.4812 Z M47.24,58.4911 L47.945,59.2001 L47.24,58.4911 Z M0.75,80.2305 L0.05,80.9395 L-0.66,80.2305 L0.05,79.5215 L0.75,80.2305 Z M34.924,46.2404 L35.63,45.5315 L36.342,46.2404 L35.63,46.9494 L34.924,46.2404 Z M0.75,12.2504 L0.05,12.9593 L-0.66,12.2504 L0.05,11.5414 L0.75,12.2504 Z M13.07,-0.000356 L12.36,-0.709326 L13.07,-1.410848 L13.78,-0.709325 L13.07,-0.000356 Z M47.24,33.9897 L46.535,34.6987 L47.24,33.9897 Z M59.555,46.2404 L60.261,45.5315 L60.973,46.2404 L60.261,46.9494 L59.555,46.2404 Z M59.361,92.4812 L60.066,93.1902 L59.361,93.8917 L58.656,93.1902 L59.361,92.4812 Z M93.531,58.4911 L94.236,59.2001 L93.531,58.4911 Z M47.045,80.2305 L46.34,80.9395 L45.627,80.2305 L46.34,79.5215 L47.045,80.2305 Z M81.215,46.2404 L81.921,45.5315 L82.633,46.2404 L81.921,46.9494 L81.215,46.2404 Z M47.045,12.2504 L46.34,12.9593 L45.627,12.2504 L46.34,11.5414 L47.045,12.2504 Z M59.361,-0.000356 L58.656,-0.709325 L59.361,-1.410848 L60.066,-0.709325 L59.361,-0.000356 Z M93.531,33.9897 L92.826,34.6987 L93.531,33.9897 Z M105.846,46.2404 L106.552,45.5315 L107.264,46.2404 L106.552,46.9494 L105.846,46.2404 Z M139.822,58.4911 L140.527,59.1999 L140.527,59.2002 L139.822,58.4911 Z M105.644,92.4812 L106.349,93.1903 L105.644,93.8918 L104.939,93.19 L105.644,92.4812 Z M152.13,46.2404 L152.835,45.5317 L153.547,46.2404 L152.835,46.9492 L152.13,46.2404 Z M139.822,33.9897 L140.527,33.2807 L140.527,33.281 L139.822,33.9897 Z M105.644,-0.000348 L104.939,-0.709096 L105.644,-1.410985 L106.349,-0.709401 L105.644,-0.000348 Z M93.336,12.2504 L92.631,12.9593 L91.919,12.2506 L92.631,11.5416 L93.336,12.2504 Z M127.506,46.2404 L128.212,45.5315 L128.924,46.2404 L128.212,46.9494 L127.506,46.2404 Z M93.336,80.2305 L92.631,80.9393 L91.919,80.2303 L92.631,79.5215 L93.336,80.2305 Z M151.933,92.4812 L152.638,93.1902 L151.933,93.8917 L151.228,93.1902 L151.933,92.4812 Z M186.103,58.4911 L185.398,57.7822 L186.103,58.4911 Z M139.618,80.2305 L138.912,80.9395 L138.2,80.2305 L138.912,79.5215 L139.618,80.2305 Z M173.788,46.2404 L174.493,45.5315 L175.206,46.2404 L174.493,46.9494 L173.788,46.2404 Z M139.618,12.2504 L138.912,12.9593 L138.2,12.2504 L138.912,11.5414 L139.618,12.2504 Z M151.933,-0.000347 L151.228,-0.709317 L151.933,-1.410839 L152.638,-0.709316 L151.933,-0.000347 Z M186.103,33.9897 L185.398,34.6987 L186.103,33.9897 Z M198.419,46.2404 L199.124,45.5315 L199.837,46.2404 L199.124,46.9494 L198.419,46.2404 Z M232.394,58.4912 L231.689,57.7822 L232.394,58.4912 Z M198.224,92.4812 L198.929,93.1902 L198.224,93.8917 L197.519,93.1902 L198.224,92.4812 Z M244.71,46.2404 L245.415,45.5315 L246.128,46.2404 L245.415,46.9494 L244.71,46.2404 Z M232.394,33.9897 L231.689,34.6987 L232.394,33.9897 Z M198.224,-0.000339 L197.519,-0.709309 L198.224,-1.410831 L198.929,-0.709308 L198.224,-0.000339 Z M185.909,12.2504 L185.203,12.9593 L184.491,12.2504 L185.203,11.5414 L185.909,12.2504 Z M220.079,46.2404 L220.784,45.5315 L221.497,46.2404 L220.784,46.9494 L220.079,46.2404 Z M185.909,80.2305 L185.203,80.9395 L184.491,80.2305 L185.203,79.5215 L185.909,80.2305 Z M244.515,92.4812 L245.22,93.1902 L244.515,93.8917 L243.81,93.1902 L244.515,92.4812 Z M278.685,58.4912 L277.98,57.7822 L278.685,58.4912 Z M232.2,80.2305 L231.494,80.9395 L230.782,80.2305 L231.494,79.5215 L232.2,80.2305 Z M266.37,46.2404 L267.075,45.5315 L267.788,46.2404 L267.075,46.9494 L266.37,46.2404 Z M232.2,12.2504 L231.494,12.9593 L230.782,12.2504 L231.494,11.5414 L232.2,12.2504 Z M244.515,-0.000339 L243.81,-0.709308 L244.515,-1.410831 L245.221,-0.709308 L244.515,-0.000339 Z M278.685,33.9897 L277.98,34.6987 L278.685,33.9897 Z M291.001,46.2405 L291.706,45.5315 L292.419,46.2405 L291.706,46.9494 L291.001,46.2405 Z M324.486,58.4912 L323.781,57.7822 L324.486,58.4912 Z M290.316,92.4813 L291.021,93.1902 L290.316,93.8917 L289.611,93.1902 L290.316,92.4813 Z M336.802,46.2405 L337.507,45.5315 L338.22,46.2405 L337.507,46.9494 L336.802,46.2405 Z M324.486,33.9898 L323.781,34.6987 L324.486,33.9898 Z M290.316,-0.000308 L289.611,-0.709277 L290.316,-1.4108 L291.021,-0.709277 L290.316,-0.000308 Z M278.001,12.2504 L277.295,12.9594 L276.583,12.2504 L277.295,11.5414 L278.001,12.2504 Z M312.17,46.2405 L312.876,45.5315 L313.588,46.2405 L312.876,46.9494 L312.17,46.2405 Z M278,80.2305 L277.295,80.9395 L276.583,80.2305 L277.295,79.5216 L278,80.2305 Z M336.606,92.4812 L337.312,93.1902 L336.606,93.8917 L335.901,93.1902 L336.606,92.4812 Z M370.776,58.4912 L370.071,57.7822 L370.776,58.4912 Z M324.291,80.2305 L323.586,80.9395 L322.873,80.2305 L323.586,79.5216 L324.291,80.2305 Z M358.461,46.2405 L359.166,45.5315 L359.879,46.2405 L359.166,46.9494 L358.461,46.2405 Z M324.291,12.2504 L323.586,12.9593 L322.873,12.2504 L323.586,11.5414 L324.291,12.2504 Z M336.606,-0.00033 L335.901,-0.7093 L336.606,-1.410822 L337.312,-0.709299 L336.606,-0.00033 Z M370.776,33.9898 L370.071,34.6987 L370.776,33.9898 Z M383.092,46.2405 L383.797,45.5315 L384.51,46.2405 L383.797,46.9494 L383.092,46.2405 Z M417.068,58.4912 L417.773,59.1999 L417.773,59.2002 L417.068,58.4912 Z M382.89,92.4812 L383.595,93.1903 L382.89,93.8919 L382.184,93.19 L382.89,92.4812 Z M429.375,46.2405 L430.081,45.5317 L430.793,46.2405 L430.081,46.9492 L429.375,46.2405 Z M417.068,33.9898 L417.773,33.2807 L417.773,33.281 L417.068,33.9898 Z M382.89,-0.000322 L382.184,-0.70907 L382.89,-1.410959 L383.595,-0.709375 L382.89,-0.000322 Z M370.582,12.2504 L369.877,12.9594 L369.164,12.2506 L369.877,11.5416 L370.582,12.2504 Z M404.752,46.2405 L405.457,45.5315 L406.17,46.2405 L405.457,46.9494 L404.752,46.2405 Z M370.582,80.2305 L369.877,80.9393 L369.164,80.2303 L369.877,79.5216 L370.582,80.2305 Z M429.18,92.4812 L429.885,93.1902 L429.18,93.8917 L428.475,93.1902 L429.18,92.4812 Z M463.35,58.4912 L462.645,57.7822 L463.35,58.4912 Z M416.865,80.2305 L416.159,80.9395 L415.447,80.2305 L416.159,79.5216 L416.865,80.2305 Z M451.035,46.2405 L451.74,45.5315 L452.453,46.2405 L451.74,46.9494 L451.035,46.2405 Z M416.865,12.2504 L416.159,12.9594 L415.447,12.2504 L416.159,11.5414 L416.865,12.2504 Z M429.18,-0.000314 L428.475,-0.709283 L429.18,-1.410806 L429.885,-0.709283 L429.18,-0.000314 Z M463.35,33.9898 L462.645,34.6987 L463.35,33.9898 Z M475.666,46.2405 L476.371,45.5315 L477.084,46.2405 L476.371,46.9494 L475.666,46.2405 Z M509.641,58.4912 L508.935,57.7822 L509.641,58.4912 Z M475.471,92.4813 L476.176,93.1902 L475.471,93.8917 L474.765,93.1902 L475.471,92.4813 Z M521.956,46.2405 L522.661,45.5315 L523.374,46.2405 L522.661,46.9495 L521.956,46.2405 Z M509.641,33.9898 L508.935,34.6987 L509.641,33.9898 Z M475.471,-0.000306 L474.765,-0.709275 L475.471,-1.410798 L476.176,-0.709275 L475.471,-0.000306 Z M463.155,12.2504 L462.45,12.9594 L461.737,12.2504 L462.45,11.5414 L463.155,12.2504 Z M497.325,46.2405 L498.03,45.5315 L498.743,46.2405 L498.03,46.9494 L497.325,46.2405 Z M463.155,80.2305 L462.45,80.9395 L461.737,80.2305 L462.45,79.5216 L463.155,80.2305 Z M521.761,92.4813 L522.466,93.1902 L521.761,93.8918 L521.056,93.1902 L521.761,92.4813 Z M555.931,58.4912 L555.226,57.7822 L555.931,58.4912 Z M509.445,80.2306 L508.74,80.9395 L508.027,80.2306 L508.74,79.5216 L509.445,80.2306 Z M543.615,46.2405 L544.321,45.5315 L545.033,46.2405 L544.321,46.9495 L543.615,46.2405 Z M509.445,12.2504 L508.74,12.9594 L508.027,12.2504 L508.74,11.5414 L509.445,12.2504 Z M521.761,-0.000298 L521.056,-0.709267 L521.761,-1.41079 L522.466,-0.709267 L521.761,-0.000298 Z M555.931,33.9898 L555.226,34.6988 L555.931,33.9898 Z M568.246,46.2405 L568.952,45.5315 L569.664,46.2405 L568.952,46.9495 L568.246,46.2405 Z M602.221,58.4912 L601.516,57.7822 L602.221,58.4912 Z M568.051,92.4813 L568.756,93.1902 L568.051,93.8918 L567.346,93.1902 L568.051,92.4813 Z M614.537,46.2405 L615.242,45.5315 L615.955,46.2405 L615.242,46.9495 L614.537,46.2405 Z M602.221,33.9898 L601.516,34.6988 L602.221,33.9898 Z M568.051,-0.00029 L567.346,-0.709259 L568.051,-1.410782 L568.756,-0.709259 L568.051,-0.00029 Z M555.736,12.2504 L555.03,12.9594 L554.318,12.2504 L555.03,11.5414 L555.736,12.2504 Z M589.906,46.2405 L590.611,45.5315 L591.324,46.2405 L590.611,46.9495 L589.906,46.2405 Z M555.736,80.2306 L555.03,80.9395 L554.318,80.2306 L555.03,79.5216 L555.736,80.2306 Z M614.335,92.4813 L615.04,93.1902 L614.335,93.8918 L613.629,93.1902 L614.335,92.4813 Z M648.505,58.4912 L647.799,57.7822 L648.505,58.4912 Z M602.019,80.2306 L601.314,80.9395 L600.601,80.2305 L601.314,79.5215 L602.019,80.2306 Z M636.197,46.2405 L636.902,45.5314 L637.615,46.2405 L636.902,46.9496 L636.197,46.2405 Z M602.019,12.2504 L601.314,12.9595 L600.601,12.2505 L601.314,11.5415 L602.019,12.2504 Z M614.335,-0.000282 L613.629,-0.709251 L614.335,-1.410774 L615.04,-0.709251 L614.335,-0.000282 Z M648.505,33.9898 L647.799,34.6988 L648.505,33.9898 Z M660.82,46.2405 L661.526,45.5315 L662.238,46.2405 L661.526,46.9495 L660.82,46.2405 Z M694.795,58.4912 L694.09,57.7822 L694.795,58.4912 Z M660.625,92.4813 L661.33,93.1903 L660.625,93.8918 L659.92,93.1903 L660.625,92.4813 Z M707.111,46.2405 L707.816,45.5315 L708.529,46.2405 L707.816,46.9495 L707.111,46.2405 Z M694.795,33.9898 L694.09,34.6988 L694.795,33.9898 Z M660.625,-0.000274 L659.92,-0.709243 L660.625,-1.410766 L661.33,-0.709243 L660.625,-0.000274 Z M648.31,12.2504 L647.604,12.9594 L646.892,12.2504 L647.604,11.5415 L648.31,12.2504 Z M682.48,46.2405 L683.185,45.5315 L683.898,46.2405 L683.185,46.9495 L682.48,46.2405 Z M648.31,80.2306 L647.604,80.9396 L646.892,80.2306 L647.604,79.5216 L648.31,80.2306 Z M706.915,92.4813 L707.621,93.1903 L706.915,93.8918 L706.21,93.1903 L706.915,92.4813 Z M741.085,58.4912 L740.38,57.7823 L741.085,58.4912 Z M694.6,80.2306 L693.895,80.9396 L693.182,80.2306 L693.895,79.5216 L694.6,80.2306 Z M728.77,46.2405 L729.475,45.5315 L730.188,46.2405 L729.475,46.9495 L728.77,46.2405 Z M694.6,12.2504 L693.895,12.9594 L693.182,12.2504 L693.895,11.5415 L694.6,12.2504 Z M706.915,-0.000266 L706.21,-0.709235 L706.915,-1.410758 L707.621,-0.709235 L706.915,-0.000266 Z M741.085,33.9898 L740.38,34.6988 L741.085,33.9898 Z M753.401,46.2405 L754.106,45.5316 L754.819,46.2405 L754.106,46.9495 L753.401,46.2405 Z M787.375,58.4912 L786.67,57.7823 L787.375,58.4912 Z M753.205,92.4813 L753.91,93.1903 L753.205,93.8918 L752.5,93.1903 L753.205,92.4813 Z M799.69,46.2405 L800.396,45.5316 L801.108,46.2405 L800.396,46.9495 L799.69,46.2405 Z M787.375,33.9898 L786.67,34.6988 L787.375,33.9898 Z M753.205,-0.000258 L752.5,-0.709227 L753.205,-1.410749 L753.91,-0.709227 L753.205,-0.000258 Z M740.889,12.2504 L740.184,12.9594 L739.471,12.2504 L740.184,11.5415 L740.889,12.2504 Z M775.059,46.2405 L775.764,45.5316 L776.477,46.2405 L775.764,46.9495 L775.059,46.2405 Z M740.889,80.2306 L740.184,80.9396 L739.471,80.2306 L740.184,79.5216 L740.889,80.2306 Z M799.496,92.4813 L800.201,93.1903 L799.496,93.8918 L798.791,93.1903 L799.496,92.4813 Z M833.666,58.4912 L832.961,57.7823 L833.666,58.4912 Z M787.181,80.2306 L786.475,80.9396 L785.763,80.2306 L786.475,79.5216 L787.181,80.2306 Z M821.351,46.2405 L822.056,45.5316 L822.769,46.2405 L822.056,46.9495 L821.351,46.2405 Z M787.181,12.2505 L786.475,12.9594 L785.763,12.2505 L786.475,11.5415 L787.181,12.2505 Z M799.496,-0.000249 L798.791,-0.709219 L799.496,-1.410741 L800.201,-0.709218 L799.496,-0.000249 Z M833.666,33.9898 L832.961,34.6988 L833.666,33.9898 Z M845.982,46.2405 L846.687,45.5316 L847.4,46.2405 L846.687,46.9495 L845.982,46.2405 Z M879.947,58.4913 L879.241,57.7823 L879.947,58.4913 Z M845.777,92.4813 L846.482,93.1903 L845.777,93.8918 L845.071,93.1903 L845.777,92.4813 Z M892.262,46.2405 L892.967,45.5316 L893.68,46.2405 L892.967,46.9495 L892.262,46.2405 Z M879.947,33.9898 L879.241,34.6988 L879.947,33.9898 Z M845.777,-0.000241 L845.071,-0.709211 L845.777,-1.410733 L846.482,-0.70921 L845.777,-0.000241 Z M833.461,12.2505 L832.756,12.9594 L832.043,12.2505 L832.756,11.5415 L833.461,12.2505 Z M867.631,46.2405 L868.336,45.5316 L869.049,46.2405 L868.336,46.9495 L867.631,46.2405 Z M833.461,80.2306 L832.756,80.9396 L832.043,80.2306 L832.756,79.5216 L833.461,80.2306 Z M892.071,92.4813 L892.776,93.1903 L892.071,93.8918 L891.366,93.1903 L892.071,92.4813 Z M926.241,58.4913 L926.946,59.2002 L926.241,58.4913 Z M879.755,80.2306 L879.05,80.9396 L878.337,80.2306 L879.05,79.5217 L879.755,80.2306 Z M913.925,46.2406 L914.631,45.5316 L915.343,46.2406 L914.631,46.9495 L913.925,46.2406 Z M879.755,12.2505 L879.05,12.9594 L878.337,12.2505 L879.05,11.5415 L879.755,12.2505 Z M892.071,-0.000233 L891.366,-0.709202 L892.071,-1.410725 L892.776,-0.709202 L892.071,-0.000233 Z M926.241,33.9899 L926.946,33.2809 L926.241,33.9899 Z M938.5564,46.2406 L939.2617,45.5316 L939.9744,46.2406 L939.2617,46.9495 L938.5564,46.2406 Z M972.5303,58.4913 L973.2355,59.2002 L972.5303,58.4913 Z M938.3602,92.4813 L939.0655,93.1903 L938.3602,93.8918 L937.655,93.1903 L938.3602,92.4813 Z M984.8458,46.2406 L985.551,45.5316 L986.2637,46.2406 L985.551,46.9495 L984.8458,46.2406 Z M972.5303,33.9899 L973.2355,33.2809 L972.5303,33.9899 Z M938.3602,-0.000225 L937.655,-0.709194 L938.3602,-1.410725 L939.0655,-0.709194 L938.3602,-0.000225 Z M926.045,12.2505 L925.339,12.9595 L924.627,12.2505 L925.339,11.5415 L926.045,12.2505 Z M960.2147,46.2406 L960.92,45.5316 L961.6327,46.2406 L960.92,46.9495 L960.2147,46.2406 Z M926.045,80.2306 L925.339,80.9396 L924.627,80.2306 L925.339,79.5217 L926.045,80.2306 Z M984.6515,92.4813 L985.3568,93.1903 L984.6515,93.8918 L983.9462,93.1903 L984.6515,92.4813 Z M1018.8215,58.4913 L1019.5268,59.2002 L1018.8215,58.4913 Z M972.336,80.2306 L971.6307,80.9396 L970.918,80.2306 L971.6307,79.5217 L972.336,80.2306 Z M1006.506,46.2406 L1007.2113,45.5316 L1007.924,46.2406 L1007.2113,46.9495 L1006.506,46.2406 Z M972.336,12.2505 L971.6308,12.9595 L970.918,12.2505 L971.6308,11.5415 L972.336,12.2505 Z M984.6515,-0.000217 L983.9462,-0.709186 L984.6515,-1.410717 L985.3568,-0.709186 L984.6515,-0.000217 Z M1018.8215,33.9899 L1019.5268,33.2809 L1018.8215,33.9899 Z M1031.13709,46.2406 L1031.84229,45.5316 L1032.55506,46.2406 L1031.84229,46.9495 L1031.13709,46.2406 Z M1065.1041,58.4913 L1064.3989,57.7823 L1065.1041,58.4913 Z M1030.9342,92.4814 L1031.6394,93.1903 L1030.9342,93.8918 L1030.229,93.1903 L1030.9342,92.4814 Z M1077.4198,46.2406 L1078.125,45.5316 L1078.8378,46.2406 L1078.125,46.9496 L1077.4198,46.2406 Z M1065.1041,33.9899 L1064.3989,34.6988 L1065.1041,33.9899 Z M1030.93422,-0.000209 L1030.22902,-0.709178 L1030.93422,-1.410709 L1031.63942,-0.709178 L1030.93422,-0.000209 Z M1018.6187,12.2505 L1017.9135,12.9596 L1017.2006,12.2506 L1017.9134,11.5415 L1018.6187,12.2505 Z M1052.7965,46.2406 L1053.5017,45.5315 L1054.2146,46.2406 L1053.5017,46.9496 L1052.7965,46.2406 Z M1018.6187,80.2306 L1017.9134,80.9396 L1017.2006,80.2306 L1017.9135,79.5216 L1018.6187,80.2306 Z M1077.2235,92.4814 L1077.9287,93.1903 L1077.2235,93.8919 L1076.5183,93.1903 L1077.2235,92.4814 Z M1111.3934,58.4913 L1110.6882,57.7823 L1111.3934,58.4913 Z M1064.908,80.2307 L1064.2028,80.9396 L1063.49,80.2307 L1064.2028,79.5217 L1064.908,80.2307 Z M1099.078,46.2406 L1099.7832,45.5316 L1100.496,46.2406 L1099.7832,46.9496 L1099.078,46.2406 Z M1064.908,12.2505 L1064.2028,12.9595 L1063.49,12.2505 L1064.2028,11.5415 L1064.908,12.2505 Z M1077.2235,-0.000201 L1076.5183,-0.70917 L1077.2235,-1.4107 L1077.9287,-0.70917 L1077.2235,-0.000201 Z M1111.3934,33.9899 L1110.6882,34.6989 L1111.3934,33.9899 Z M1123.7091,46.2406 L1124.4143,45.5316 L1125.1271,46.2406 L1124.4143,46.9496 L1123.7091,46.2406 Z M1157.685,58.4913 L1156.979,57.7823 L1157.685,58.4913 Z M1123.5148,92.4814 L1124.22,93.1903 L1123.5148,93.8919 L1122.8096,93.1903 L1123.5148,92.4814 Z M1170,46.2406 L1170.706,45.5316 L1171.418,46.2406 L1170.706,46.9496 L1170,46.2406 Z M1157.685,33.9899 L1156.98,34.6989 L1157.685,33.9899 Z M1123.5148,-0.000193 L1122.8096,-0.709162 L1123.5148,-1.410692 L1124.22,-0.709162 L1123.5148,-0.000193 Z M1111.1992,12.2505 L1110.494,12.9595 L1109.7813,12.2505 L1110.494,11.5415 L1111.1992,12.2505 Z M1145.369,46.2406 L1146.074,45.5316 L1146.787,46.2406 L1146.074,46.9496 L1145.369,46.2406 Z M1111.1992,80.2307 L1110.494,80.9396 L1109.7813,80.2307 L1110.494,79.5217 L1111.1992,80.2307 Z M12.36,91.7722 L46.535,57.7822 L47.945,59.2001 L13.78,93.1902 L12.36,91.7722 Z M1.46,79.5215 L13.78,91.7722 L12.36,93.1902 L0.05,80.9395 L1.46,79.5215 Z M35.63,46.9494 L1.46,80.9395 L0.05,79.5215 L34.219,45.5315 L35.63,46.9494 Z M1.46,11.5414 L35.63,45.5315 L34.219,46.9494 L0.05,12.9593 L1.46,11.5414 Z M13.78,0.70861 L1.46,12.9593 L0.05,11.5414 L12.36,-0.709326 L13.78,0.70861 Z M46.535,34.6987 L12.36,0.70861 L13.78,-0.709325 L47.945,33.2808 L46.535,34.6987 Z M58.85,46.9494 L46.535,34.6987 L47.945,33.2808 L60.261,45.5315 L58.85,46.9494 Z M46.535,57.7822 L58.85,45.5315 L60.261,46.9494 L47.945,59.2001 L46.535,57.7822 Z M58.656,91.7722 L92.826,57.7822 L94.236,59.2001 L60.066,93.1902 L58.656,91.7722 Z M47.751,79.5215 L60.066,91.7722 L58.656,93.1902 L46.34,80.9395 L47.751,79.5215 Z M81.921,46.9494 L47.751,80.9395 L46.34,79.5215 L80.51,45.5315 L81.921,46.9494 Z M47.751,11.5414 L81.921,45.5315 L80.51,46.9494 L46.34,12.9593 L47.751,11.5414 Z M60.066,0.70861 L47.751,12.9593 L46.34,11.5414 L58.656,-0.709325 L60.066,0.70861 Z M92.826,34.6987 L58.656,0.70861 L60.066,-0.709325 L94.236,33.2808 L92.826,34.6987 Z M105.141,46.9494 L92.826,34.6987 L94.236,33.2808 L106.552,45.5315 L105.141,46.9494 Z M92.826,57.7822 L105.141,45.5315 L106.552,46.9494 L94.236,59.2001 L92.826,57.7822 Z M140.527,59.2002 L106.349,93.1903 L104.939,91.7722 L139.117,57.7821 L140.527,59.2002 Z M152.835,46.9492 L140.527,59.1999 L139.117,57.7824 L151.424,45.5317 L152.835,46.9492 Z M140.527,33.281 L152.835,45.5317 L151.424,46.9492 L139.117,34.6985 L140.527,33.281 Z M106.349,-0.709401 L140.527,33.2807 L139.117,34.6988 L104.939,0.70871 L106.349,-0.709401 Z M92.631,11.5416 L104.939,-0.709096 L106.35,0.7084 L94.042,12.9591 L92.631,11.5416 Z M126.801,46.9494 L92.631,12.9593 L94.042,11.5414 L128.212,45.5315 L126.801,46.9494 Z M92.631,79.5215 L126.801,45.5315 L128.212,46.9494 L94.042,80.9395 L92.631,79.5215 Z M104.939,93.19 L92.631,80.9393 L94.042,79.5218 L106.35,91.7725 L104.939,93.19 Z M151.228,91.7722 L185.398,57.7822 L186.808,59.2001 L152.638,93.1902 L151.228,91.7722 Z M140.323,79.5215 L152.638,91.7722 L151.228,93.1902 L138.912,80.9395 L140.323,79.5215 Z M174.493,46.9494 L140.323,80.9395 L138.912,79.5215 L173.082,45.5315 L174.493,46.9494 Z M140.323,11.5414 L174.493,45.5315 L173.082,46.9494 L138.912,12.9593 L140.323,11.5414 Z M152.638,0.70862 L140.323,12.9593 L138.912,11.5414 L151.228,-0.709317 L152.638,0.70862 Z M185.398,34.6987 L151.228,0.70862 L152.638,-0.709316 L186.808,33.2808 L185.398,34.6987 Z M197.714,46.9494 L185.398,34.6987 L186.808,33.2808 L199.124,45.5315 L197.714,46.9494 Z M185.398,57.7822 L197.714,45.5315 L199.124,46.9494 L186.808,59.2001 L185.398,57.7822 Z M233.099,59.2001 L198.929,93.1902 L197.519,91.7722 L231.689,57.7822 L233.099,59.2001 Z M245.415,46.9494 L233.099,59.2001 L231.689,57.7822 L244.005,45.5315 L245.415,46.9494 Z M233.099,33.2808 L245.415,45.5315 L244.005,46.9494 L231.689,34.6987 L233.099,33.2808 Z M198.929,-0.709308 L233.099,33.2808 L231.689,34.6987 L197.519,0.70863 L198.929,-0.709308 Z M185.203,11.5414 L197.519,-0.709309 L198.929,0.70863 L186.614,12.9593 L185.203,11.5414 Z M219.373,46.9494 L185.203,12.9593 L186.614,11.5414 L220.784,45.5315 L219.373,46.9494 Z M185.203,79.5215 L219.373,45.5315 L220.784,46.9494 L186.614,80.9395 L185.203,79.5215 Z M197.519,93.1902 L185.203,80.9395 L186.614,79.5215 L198.929,91.7722 L197.519,93.1902 Z M243.81,91.7723 L277.98,57.7822 L279.39,59.2001 L245.22,93.1902 L243.81,91.7723 Z M232.905,79.5215 L245.22,91.7723 L243.81,93.1902 L231.494,80.9395 L232.905,79.5215 Z M267.075,46.9494 L232.905,80.9395 L231.494,79.5215 L265.664,45.5315 L267.075,46.9494 Z M232.905,11.5414 L267.075,45.5315 L265.664,46.9494 L231.494,12.9593 L232.905,11.5414 Z M245.221,0.70863 L232.905,12.9593 L231.494,11.5414 L243.81,-0.709308 L245.221,0.70863 Z M277.98,34.6987 L243.81,0.70863 L245.221,-0.709308 L279.39,33.2808 L277.98,34.6987 Z M290.296,46.9494 L277.98,34.6987 L279.39,33.2808 L291.706,45.5315 L290.296,46.9494 Z M277.98,57.7822 L290.296,45.5315 L291.706,46.9494 L279.39,59.2001 L277.98,57.7822 Z M325.191,59.2002 L291.021,93.1902 L289.611,91.7723 L323.781,57.7822 L325.191,59.2002 Z M337.507,46.9494 L325.191,59.2002 L323.781,57.7822 L336.096,45.5315 L337.507,46.9494 Z M325.191,33.2808 L337.507,45.5315 L336.096,46.9494 L323.781,34.6987 L325.191,33.2808 Z M291.021,-0.709277 L325.191,33.2808 L323.781,34.6987 L289.611,0.70866 L291.021,-0.709277 Z M277.295,11.5414 L289.611,-0.709277 L291.021,0.70866 L278.706,12.9594 L277.295,11.5414 Z M311.465,46.9494 L277.295,12.9594 L278.706,11.5414 L312.876,45.5315 L311.465,46.9494 Z M277.295,79.5216 L311.465,45.5315 L312.876,46.9494 L278.706,80.9395 L277.295,79.5216 Z M289.611,93.1902 L277.295,80.9395 L278.706,79.5216 L291.021,91.7723 L289.611,93.1902 Z M335.901,91.7723 L370.071,57.7822 L371.482,59.2001 L337.312,93.1902 L335.901,91.7723 Z M324.996,79.5216 L337.312,91.7723 L335.901,93.1902 L323.586,80.9395 L324.996,79.5216 Z M359.166,46.9494 L324.996,80.9395 L323.586,79.5216 L357.756,45.5315 L359.166,46.9494 Z M324.996,11.5414 L359.166,45.5315 L357.756,46.9494 L323.586,12.9593 L324.996,11.5414 Z M337.312,0.70864 L324.996,12.9593 L323.586,11.5414 L335.901,-0.7093 L337.312,0.70864 Z M370.071,34.6987 L335.901,0.70864 L337.312,-0.709299 L371.482,33.2808 L370.071,34.6987 Z M382.387,46.9494 L370.071,34.6987 L371.482,33.2808 L383.797,45.5315 L382.387,46.9494 Z M370.071,57.7822 L382.387,45.5315 L383.797,46.9494 L371.482,59.2001 L370.071,57.7822 Z M417.773,59.2002 L383.595,93.1903 L382.185,91.7722 L416.362,57.7821 L417.773,59.2002 Z M430.081,46.9492 L417.773,59.1999 L416.362,57.7824 L428.67,45.5317 L430.081,46.9492 Z M417.773,33.281 L430.081,45.5317 L428.67,46.9492 L416.362,34.6985 L417.773,33.281 Z M383.595,-0.709375 L417.773,33.2807 L416.362,34.6988 L382.185,0.70873 L383.595,-0.709375 Z M369.877,11.5416 L382.184,-0.70907 L383.595,0.70843 L371.288,12.9591 L369.877,11.5416 Z M404.047,46.9494 L369.877,12.9594 L371.287,11.5414 L405.457,45.5315 L404.047,46.9494 Z M369.877,79.5216 L404.047,45.5315 L405.457,46.9494 L371.287,80.9395 L369.877,79.5216 Z M382.184,93.19 L369.877,80.9393 L371.288,79.5218 L383.595,91.7725 L382.184,93.19 Z M428.475,91.7723 L462.645,57.7822 L464.055,59.2001 L429.885,93.1902 L428.475,91.7723 Z M417.57,79.5216 L429.885,91.7723 L428.475,93.1902 L416.159,80.9395 L417.57,79.5216 Z M451.74,46.9494 L417.57,80.9395 L416.159,79.5216 L450.329,45.5315 L451.74,46.9494 Z M417.57,11.5414 L451.74,45.5315 L450.329,46.9494 L416.159,12.9594 L417.57,11.5414 Z M429.885,0.70866 L417.57,12.9594 L416.159,11.5414 L428.475,-0.709283 L429.885,0.70866 Z M462.645,34.6987 L428.475,0.70865 L429.885,-0.709283 L464.055,33.2808 L462.645,34.6987 Z M474.961,46.9494 L462.645,34.6987 L464.055,33.2808 L476.371,45.5315 L474.961,46.9494 Z M462.645,57.7822 L474.961,45.5315 L476.371,46.9494 L464.055,59.2001 L462.645,57.7822 Z M510.346,59.2002 L476.176,93.1902 L474.765,91.7723 L508.935,57.7822 L510.346,59.2002 Z M522.661,46.9495 L510.346,59.2002 L508.935,57.7822 L521.251,45.5315 L522.661,46.9495 Z M510.346,33.2808 L522.661,45.5315 L521.251,46.9495 L508.935,34.6987 L510.346,33.2808 Z M476.176,-0.709275 L510.346,33.2808 L508.935,34.6987 L474.765,0.70866 L476.176,-0.709275 Z M462.45,11.5414 L474.765,-0.709275 L476.176,0.70866 L463.86,12.9594 L462.45,11.5414 Z M496.62,46.9494 L462.45,12.9594 L463.86,11.5414 L498.03,45.5315 L496.62,46.9494 Z M462.45,79.5216 L496.62,45.5315 L498.03,46.9494 L463.86,80.9395 L462.45,79.5216 Z M474.765,93.1902 L462.45,80.9395 L463.86,79.5216 L476.176,91.7723 L474.765,93.1902 Z M521.056,91.7723 L555.226,57.7822 L556.636,59.2002 L522.466,93.1902 L521.056,91.7723 Z M510.151,79.5216 L522.466,91.7723 L521.056,93.1902 L508.74,80.9395 L510.151,79.5216 Z M544.321,46.9495 L510.151,80.9395 L508.74,79.5216 L542.91,45.5315 L544.321,46.9495 Z M510.151,11.5414 L544.321,45.5315 L542.91,46.9495 L508.74,12.9594 L510.151,11.5414 Z M522.466,0.70867 L510.151,12.9594 L508.74,11.5414 L521.056,-0.709267 L522.466,0.70867 Z M555.226,34.6988 L521.056,0.70867 L522.466,-0.709267 L556.636,33.2808 L555.226,34.6988 Z M567.541,46.9495 L555.226,34.6988 L556.636,33.2808 L568.952,45.5315 L567.541,46.9495 Z M555.226,57.7822 L567.541,45.5315 L568.952,46.9495 L556.636,59.2002 L555.226,57.7822 Z M602.926,59.2002 L568.756,93.1902 L567.346,91.7723 L601.516,57.7822 L602.926,59.2002 Z M615.242,46.9495 L602.926,59.2002 L601.516,57.7822 L613.831,45.5315 L615.242,46.9495 Z M602.926,33.2808 L615.242,45.5315 L613.831,46.9495 L601.516,34.6988 L602.926,33.2808 Z M568.756,-0.709259 L602.926,33.2808 L601.516,34.6988 L567.346,0.70868 L568.756,-0.709259 Z M555.03,11.5414 L567.346,-0.709259 L568.756,0.70868 L556.441,12.9594 L555.03,11.5414 Z M589.2,46.9495 L555.03,12.9594 L556.441,11.5414 L590.611,45.5315 L589.2,46.9495 Z M555.03,79.5216 L589.2,45.5315 L590.611,46.9495 L556.441,80.9395 L555.03,79.5216 Z M567.346,93.1902 L555.03,80.9395 L556.441,79.5216 L568.756,91.7723 L567.346,93.1902 Z M613.629,91.7723 L647.799,57.7822 L649.21,59.2002 L615.04,93.1902 L613.629,91.7723 Z M602.724,79.5216 L615.04,91.7723 L613.629,93.1902 L601.314,80.9395 L602.724,79.5216 Z M636.902,46.9496 L602.724,80.9396 L601.314,79.5215 L635.492,45.5314 L636.902,46.9496 Z M602.724,11.5414 L636.902,45.5314 L635.492,46.9496 L601.314,12.9595 L602.724,11.5414 Z M615.04,0.70869 L602.724,12.9594 L601.314,11.5415 L613.629,-0.709251 L615.04,0.70869 Z M647.799,34.6988 L613.629,0.70869 L615.04,-0.709251 L649.21,33.2808 L647.799,34.6988 Z M660.115,46.9495 L647.799,34.6988 L649.21,33.2808 L661.526,45.5315 L660.115,46.9495 Z M647.799,57.7822 L660.115,45.5315 L661.526,46.9495 L649.21,59.2002 L647.799,57.7822 Z M695.5,59.2002 L661.33,93.1903 L659.92,91.7723 L694.09,57.7822 L695.5,59.2002 Z M707.816,46.9495 L695.5,59.2002 L694.09,57.7822 L706.405,45.5315 L707.816,46.9495 Z M695.5,33.2808 L707.816,45.5315 L706.405,46.9495 L694.09,34.6988 L695.5,33.2808 Z M661.33,-0.709243 L695.5,33.2808 L694.09,34.6988 L659.92,0.7087 L661.33,-0.709243 Z M647.604,11.5415 L659.92,-0.709243 L661.33,0.7087 L649.015,12.9594 L647.604,11.5415 Z M681.774,46.9495 L647.604,12.9594 L649.015,11.5415 L683.185,45.5315 L681.774,46.9495 Z M647.604,79.5216 L681.774,45.5315 L683.185,46.9495 L649.015,80.9396 L647.604,79.5216 Z M659.92,93.1903 L647.604,80.9396 L649.015,79.5216 L661.33,91.7723 L659.92,93.1903 Z M706.21,91.7723 L740.38,57.7823 L741.791,59.2002 L707.621,93.1903 L706.21,91.7723 Z M695.305,79.5216 L707.621,91.7723 L706.21,93.1903 L693.895,80.9396 L695.305,79.5216 Z M729.475,46.9495 L695.305,80.9396 L693.895,79.5216 L728.065,45.5315 L729.475,46.9495 Z M695.305,11.5415 L729.475,45.5315 L728.065,46.9495 L693.895,12.9594 L695.305,11.5415 Z M707.621,0.7087 L695.305,12.9594 L693.895,11.5415 L706.21,-0.709235 L707.621,0.7087 Z M740.38,34.6988 L706.21,0.7087 L707.621,-0.709235 L741.791,33.2808 L740.38,34.6988 Z M752.696,46.9495 L740.38,34.6988 L741.791,33.2808 L754.106,45.5316 L752.696,46.9495 Z M740.38,57.7823 L752.696,45.5316 L754.106,46.9495 L741.791,59.2002 L740.38,57.7823 Z M788.08,59.2002 L753.91,93.1903 L752.5,91.7723 L786.67,57.7823 L788.08,59.2002 Z M800.396,46.9495 L788.08,59.2002 L786.67,57.7823 L798.985,45.5316 L800.396,46.9495 Z M788.08,33.2809 L800.396,45.5316 L798.985,46.9495 L786.67,34.6988 L788.08,33.2809 Z M753.91,-0.709227 L788.08,33.2809 L786.67,34.6988 L752.5,0.70871 L753.91,-0.709227 Z M740.184,11.5415 L752.5,-0.709227 L753.91,0.70871 L741.594,12.9594 L740.184,11.5415 Z M774.354,46.9495 L740.184,12.9594 L741.594,11.5415 L775.764,45.5316 L774.354,46.9495 Z M740.184,79.5216 L774.354,45.5316 L775.764,46.9495 L741.594,80.9396 L740.184,79.5216 Z M752.5,93.1903 L740.184,80.9396 L741.594,79.5216 L753.91,91.7723 L752.5,93.1903 Z M798.791,91.7723 L832.961,57.7823 L834.371,59.2002 L800.201,93.1903 L798.791,91.7723 Z M787.886,79.5216 L800.201,91.7723 L798.791,93.1903 L786.475,80.9396 L787.886,79.5216 Z M822.056,46.9495 L787.886,80.9396 L786.475,79.5216 L820.645,45.5316 L822.056,46.9495 Z M787.886,11.5415 L822.056,45.5316 L820.645,46.9495 L786.475,12.9594 L787.886,11.5415 Z M800.201,0.70872 L787.886,12.9594 L786.475,11.5415 L798.791,-0.709219 L800.201,0.70872 Z M832.961,34.6988 L798.791,0.70872 L800.201,-0.709218 L834.371,33.2809 L832.961,34.6988 Z M845.276,46.9495 L832.961,34.6988 L834.371,33.2809 L846.687,45.5316 L845.276,46.9495 Z M832.961,57.7823 L845.276,45.5316 L846.687,46.9495 L834.371,59.2002 L832.961,57.7823 Z M880.652,59.2002 L846.482,93.1903 L845.071,91.7723 L879.241,57.7823 L880.652,59.2002 Z M892.967,46.9495 L880.652,59.2002 L879.241,57.7823 L891.557,45.5316 L892.967,46.9495 Z M880.652,33.2809 L892.967,45.5316 L891.557,46.9495 L879.241,34.6988 L880.652,33.2809 Z M846.482,-0.70921 L880.652,33.2809 L879.241,34.6988 L845.071,0.70873 L846.482,-0.70921 Z M832.756,11.5415 L845.071,-0.709211 L846.482,0.70873 L834.166,12.9594 L832.756,11.5415 Z M866.926,46.9495 L832.756,12.9594 L834.166,11.5415 L868.336,45.5316 L866.926,46.9495 Z M832.756,79.5216 L866.926,45.5316 L868.336,46.9495 L834.166,80.9396 L832.756,79.5216 Z M845.071,93.1903 L832.756,80.9396 L834.166,79.5216 L846.482,91.7723 L845.071,93.1903 Z M891.366,91.7724 L925.536,57.7823 L926.946,59.2002 L892.776,93.1903 L891.366,91.7724 Z M880.461,79.5217 L892.776,91.7724 L891.366,93.1903 L879.05,80.9396 L880.461,79.5217 Z M914.631,46.9495 L880.461,80.9396 L879.05,79.5217 L913.22,45.5316 L914.631,46.9495 Z M880.461,11.5415 L914.631,45.5316 L913.22,46.9495 L879.05,12.9594 L880.461,11.5415 Z M892.776,0.70874 L880.461,12.9594 L879.05,11.5415 L891.366,-0.709202 L892.776,0.70874 Z M925.536,34.6988 L891.366,0.70874 L892.776,-0.709202 L926.946,33.2809 L925.536,34.6988 Z M937.8511,46.9495 L925.536,34.6988 L926.946,33.2809 L939.2617,45.5316 L937.8511,46.9495 Z M925.536,57.7823 L937.8511,45.5316 L939.2617,46.9495 L926.946,59.2002 L925.536,57.7823 Z M973.2355,59.2002 L939.0655,93.1903 L937.655,91.7724 L971.825,57.7823 L973.2355,59.2002 Z M985.551,46.9495 L973.2355,59.2002 L971.825,57.7823 L984.1405,45.5316 L985.551,46.9495 Z M973.2355,33.2809 L985.551,45.5316 L984.1405,46.9495 L971.825,34.6988 L973.2355,33.2809 Z M939.0655,-0.709194 L973.2355,33.2809 L971.825,34.6988 L937.655,0.70874 L939.0655,-0.709194 Z M925.339,11.5415 L937.655,-0.709194 L939.0655,0.70874 L926.75,12.9595 L925.339,11.5415 Z M959.5095,46.9495 L925.339,12.9595 L926.75,11.5415 L960.92,45.5316 L959.5095,46.9495 Z M925.339,79.5217 L959.5095,45.5316 L960.92,46.9495 L926.75,80.9396 L925.339,79.5217 Z M937.655,93.1903 L925.339,80.9396 L926.75,79.5217 L939.0655,91.7724 L937.655,93.1903 Z M983.9462,91.7724 L1018.1163,57.7823 L1019.5268,59.2002 L985.3568,93.1903 L983.9462,91.7724 Z M973.0413,79.5217 L985.3568,91.7724 L983.9462,93.1903 L971.6307,80.9396 L973.0413,79.5217 Z M1007.2113,46.9495 L973.0413,80.9396 L971.6307,79.5217 L1005.8007,45.5316 L1007.2113,46.9495 Z M973.0413,11.5415 L1007.2113,45.5316 L1005.8007,46.9495 L971.6308,12.9595 L973.0413,11.5415 Z M985.3568,0.70875 L973.0413,12.9595 L971.6308,11.5415 L983.9462,-0.709186 L985.3568,0.70875 Z M1018.1163,34.6988 L983.9462,0.70875 L985.3568,-0.709186 L1019.5268,33.2809 L1018.1163,34.6988 Z M1030.43189,46.9495 L1018.1163,34.6988 L1019.5268,33.2809 L1031.84229,45.5316 L1030.43189,46.9495 Z M1018.1163,57.7823 L1030.43189,45.5316 L1031.84229,46.9495 L1019.5268,59.2002 L1018.1163,57.7823 Z M1065.8093,59.2003 L1031.6394,93.1903 L1030.229,91.7724 L1064.3989,57.7823 L1065.8093,59.2003 Z M1078.125,46.9496 L1065.8093,59.2003 L1064.3989,57.7823 L1076.7146,45.5316 L1078.125,46.9496 Z M1065.8093,33.2809 L1078.125,45.5316 L1076.7146,46.9496 L1064.3989,34.6988 L1065.8093,33.2809 Z M1031.63942,-0.709178 L1065.8093,33.2809 L1064.3989,34.6988 L1030.22902,0.70876 L1031.63942,-0.709178 Z M1017.9134,11.5415 L1030.22902,-0.709178 L1031.63942,0.70876 L1019.32393,12.9595 L1017.9134,11.5415 Z M1052.0913,46.9496 L1017.9135,12.9596 L1019.32381,11.5414 L1053.5017,45.5315 L1052.0913,46.9496 Z M1017.9135,79.5216 L1052.0913,45.5315 L1053.5017,46.9496 L1019.32379,80.9397 L1017.9135,79.5216 Z M1030.229,93.1903 L1017.9134,80.9396 L1019.32392,79.5217 L1031.6394,91.7724 L1030.229,93.1903 Z M1076.5183,91.7724 L1110.6882,57.7823 L1112.0986,59.2003 L1077.9287,93.1903 L1076.5183,91.7724 Z M1065.6132,79.5217 L1077.9287,91.7724 L1076.5183,93.1903 L1064.2028,80.9396 L1065.6132,79.5217 Z M1099.7832,46.9496 L1065.6132,80.9396 L1064.2028,79.5217 L1098.3728,45.5316 L1099.7832,46.9496 Z M1065.6132,11.5415 L1099.7832,45.5316 L1098.3728,46.9496 L1064.2028,12.9595 L1065.6132,11.5415 Z M1077.9287,0.70877 L1065.6132,12.9595 L1064.2028,11.5415 L1076.5183,-0.70917 L1077.9287,0.70877 Z M1110.6882,34.6989 L1076.5183,0.70877 L1077.9287,-0.70917 L1112.0986,33.2809 L1110.6882,34.6989 Z M1123.0039,46.9496 L1110.6882,34.6989 L1112.0986,33.2809 L1124.4143,45.5316 L1123.0039,46.9496 Z M1110.6882,57.7823 L1123.0039,45.5316 L1124.4143,46.9496 L1112.0986,59.2003 L1110.6882,57.7823 Z M1158.39,59.2003 L1124.22,93.1903 L1122.8096,91.7724 L1156.979,57.7823 L1158.39,59.2003 Z M1170.706,46.9496 L1158.39,59.2003 L1156.979,57.7823 L1169.295,45.5316 L1170.706,46.9496 Z M1158.39,33.2809 L1170.706,45.5316 L1169.295,46.9496 L1156.98,34.6989 L1158.39,33.2809 Z M1124.22,-0.709162 L1158.39,33.2809 L1156.98,34.6989 L1122.8096,0.70878 L1124.22,-0.709162 Z M1110.494,11.5415 L1122.8096,-0.709162 L1124.22,0.70878 L1111.9044,12.9595 L1110.494,11.5415 Z M1144.664,46.9496 L1110.494,12.9595 L1111.9044,11.5415 L1146.074,45.5316 L1144.664,46.9496 Z M1110.494,79.5217 L1144.664,45.5316 L1146.074,46.9496 L1111.9044,80.9396 L1110.494,79.5217 Z M1122.8096,93.1903 L1110.494,80.9396 L1111.9044,79.5217 L1124.22,91.7724 L1122.8096,93.1903 Z" id="Shape" fill="#F4F6F9" fill-rule="nonzero" mask="url(#mask-2)"></path>
                </g>
            </g>
        </g>
    </g>
</svg>