<svg width="1440" height="601" viewBox="0 0 1440 601" fill="none" xmlns="http://www.w3.org/2000/svg">
<rect width="1440" height="601" fill="#EF4B50"/>
<mask id="mask0" style="mask-type:alpha" maskUnits="userSpaceOnUse" x="0" y="0" width="1440" height="601">
<rect width="1440" height="601" fill="#EF4249"/>
</mask>
<g mask="url(#mask0)">
<path fill-rule="evenodd" clip-rule="evenodd" d="M925.5 54C993.707 54 1049 -1.29283 1049 -69.5C1049 -137.707 993.707 -193 925.5 -193C857.293 -193 802 -137.707 802 -69.5C802 -1.29283 857.293 54 925.5 54ZM925.5 95C1016.35 95 1090 21.3508 1090 -69.5C1090 -160.351 1016.35 -234 925.5 -234C834.649 -234 761 -160.351 761 -69.5C761 21.3508 834.649 95 925.5 95Z" fill="#F2696D"/>
<path fill-rule="evenodd" clip-rule="evenodd" d="M111.5 -240V130C111.5 197.655 166.345 252.5 234 252.5H294V211.5H234C188.989 211.5 152.5 175.011 152.5 130V-240H111.5ZM317.123 187.668L361.245 231.79L317.123 275.913L340.457 299.248L407.914 231.79L340.457 164.333L317.123 187.668Z" fill="#F2696D"/>
<path fill-rule="evenodd" clip-rule="evenodd" d="M1251.08 -287V417C1251.08 484.655 1196.24 539.5 1128.58 539.5H1068.58V498.5H1128.58C1173.59 498.5 1210.08 462.011 1210.08 417V-287H1251.08ZM1045.46 474.668L1001.34 518.79L1045.46 562.913L1022.12 586.248L954.666 518.79L1022.12 451.333L1045.46 474.668Z" fill="#F2696D"/>
<path fill-rule="evenodd" clip-rule="evenodd" d="M1307.5 156L1307.5 860L1348.5 860L1348.5 156C1348.5 110.989 1384.99 74.5 1430 74.5L1490 74.5L1490 33.5L1430 33.5C1362.35 33.5 1307.5 88.3451 1307.5 156Z" fill="#F2696D"/>
<path fill-rule="evenodd" clip-rule="evenodd" d="M97 764C191.993 764 269 686.993 269 592C269 497.007 191.993 420 97 420C2.00703 420 -75 497.007 -75 592C-75 686.993 2.00703 764 97 764ZM97 805C214.637 805 310 709.637 310 592C310 474.363 214.637 379 97 379C-20.6367 379 -116 474.363 -116 592C-116 709.637 -20.6367 805 97 805Z" fill="#F2696D"/>
</g>
</svg>
