<svg viewBox="0 0 103 68" version="1.1" xmlns="http://www.w3.org/2000/svg" xmlns:xlink="http://www.w3.org/1999/xlink">
    <g id="logo-color" stroke="none" stroke-width="1" fill="none" fill-rule="evenodd">
        <g transform="translate(-253.000000, -16.000000)" fill="#143423">
            <g transform="translate(253.000000, 16.000000)">
                <g>
                    <path d="M28.8308482,25.483736 C27.4150794,21.0776346 31.2261056,16.036223 34.050937,13.312444 C38.0350224,9.47101891 43.2998196,7.77659349 48.6052271,7.84048166 C51.7517734,7.87837806 56.1391666,8.52360891 58.5055497,11.0708025 C58.667618,11.2448085 59.210081,9.64621536 58.9122107,9.32578245 C55.9763532,6.16550047 50.5301139,5.8270122 46.6928215,6.05796199 C40.9641736,6.40319621 35.6507558,9.35693289 31.9833557,14.0156107 C29.5726366,17.0778779 27.5147421,21.6575884 28.1007959,25.7700423 C28.1117867,25.8474223 28.1255718,25.923612 28.1387981,26 C28.4143141,25.9601195 28.6989582,25.9380959 28.9923577,25.9339293 C28.9346092,25.7857167 28.8798413,25.6363136 28.8308482,25.483736"></path>
                    <path d="M34.4249293,29 C34.5894777,28.8105388 34.7617985,28.6251802 34.946252,28.4472806 C35.0825542,28.3167464 35.2237852,28.1931118 35.3671016,28.0726473 C34.1875852,26.6341597 33.2939433,24.857402 33.579249,23.1460978 C33.9430375,20.9620731 35.6725019,19.0724964 37.3955209,17.7861745 C42.3588924,14.0808662 49.9089724,13.9659961 55.5411535,16.1239139 C60.6072729,18.0645854 64.7518833,21.8663026 67.659158,26.3348633 L69,26.3348633 C66.4830539,21.6481239 62.6899098,17.6780175 57.4135551,15.0850476 C51.7099054,12.2822906 44.3816245,12.2470463 38.7792062,15.3326898 C34.9682423,17.4313078 32.2355634,21.9627114 33.1921432,26.3106212 C33.3464547,27.0115902 33.6378267,27.7002517 34.0162122,28.3546013 C34.0971594,28.4745064 34.1722299,28.5983274 34.2419924,28.725878 C34.3013284,28.8181844 34.3625601,28.9093719 34.4249293,29"></path>
                    <path d="M72.0372875,51.2161628 C71.8877738,52.2113134 72.2263008,52.2832227 72.3753756,51.2919945 C72.8302072,48.2619029 73.0454074,45.1236671 72.9920096,42 L72.6267107,42 C72.7070267,45.0838835 72.4913876,48.191301 72.0372875,51.2161628"></path>
                    <path d="M44.695746,20.2020832 C42.32045,19.9245828 39.7611589,19.9027337 37.3999866,20.3275003 C36.9277134,20.412488 36.9482218,21.9403744 37.0850088,21.9157727 C43.255903,20.8057712 50.3173638,22.1872516 54.9851484,26 L55.1913931,26 L57,26 C56.9050036,25.8929912 56.8103942,25.7858103 56.7123023,25.680866 C53.7149832,22.4697412 49.2727907,20.7362671 44.695746,20.2020832"></path>
                    <path d="M60.2964775,48.9009964 C58.2404375,54.971328 53.7169628,60.0028935 48.8327464,63.8195031 C47.7101486,64.6969713 46.5383928,65.5483301 45.3042081,66.2525095 C44.918981,66.4720216 44.9479524,68.096798 45.1255195,67.9954549 C53.4399581,63.2497386 60.5680616,54.2990601 61.8014987,44.4084443 C61.9001886,43.6174271 61.9661688,42.8126783 62,42 L61.4775789,42 C61.41758,44.3972269 61.0246894,46.751325 60.2964775,48.9009964"></path>
                    <path d="M54.4702103,47.6690056 C52.2458052,53.9690419 46.308479,58.3501213 40.3492796,60.8059677 C34.4714864,63.2291025 27.6326057,64.0008693 21.4516315,62.3544461 C21.1739375,62.2804645 20.7880189,64.0162742 21.1419836,64.1102251 C33.6676954,67.4466236 49.9312446,61.2078266 54.6931263,48.6218276 C55.4623007,46.5887603 55.9050895,44.3133986 56,42 L55.4185544,42 C55.4040991,43.9731593 55.0893158,45.9155089 54.4702103,47.6690056"></path>
                    <path d="M54.2736244,37 L55,37 C54.7618122,35.6029913 54.4297249,34.2559433 54,33 L54,35.9199685 C54.0985347,36.274941 54.1897428,36.6351614 54.2736244,37"></path>
                    <path d="M43.3313266,25.0000896 C43.180351,24.9935751 43.0643867,25.3433204 43,25.7425348 C43.3526749,25.8453412 43.6981768,25.9774627 44.0349686,26.1393064 C44.7379275,26.4766334 45.3898211,26.9365138 45.9815977,27.5087687 C46.3329064,27.6508655 46.6724307,27.8149485 47,28 L47,26.0725331 C45.9819393,25.5375328 44.8511592,25.1755729 43.6037317,25.0239081 C43.5133854,25.0127114 43.422356,25.0039575 43.3313266,25.0000896"></path>
                    <path d="M49.5149858,41.8374176 C48.7547606,46.9047176 45.7781201,51.7774142 41.0480846,54.3951451 C34.7373544,57.8875454 26.1375332,57.9139872 19.4278521,55.6664404 C13.4885325,53.6774139 8.62270831,49.426954 5.02316125,44.4184345 C3.20359318,41.886116 1.52880259,39.0304096 0.512108886,36.0689363 C0.371921436,35.6605162 -0.103530133,37.1850054 0.0204009275,37.5464391 C2.72814161,45.4342533 8.92182587,52.708201 16.4504466,56.3381364 C27.0411972,61.4432918 43.3758083,59.5419605 48.391,47.6943551 C49.1594491,45.8790069 49.7068112,43.877996 50,41.8374176 L49.7006912,41.8374176 L49.5149858,41.8374176 Z"></path>
                    <path d="M46.3973696,41.0926776 C46.2107547,42.1828214 45.8936813,43.2586813 45.4707895,44.213795 C42.8938997,50.0349417 36.4382092,52.3786364 30.534341,53.099114 C23.8920356,53.9089133 17.9058429,51.964976 13.2207971,47.1675056 C9.5146677,43.3725712 7.03939421,38.4364521 5.28823229,33.4841446 C4.55055915,31.3987019 3.89559251,29.2399354 3.49772271,27.0602193 C3.42953283,26.6863632 2.93749606,28.1602665 3.00664098,28.5396457 C4.39164045,36.1278004 7.94763755,44.1572309 13.5241179,49.5601463 C18.2771626,54.1656418 24.2793999,55.5822192 30.7396746,54.793941 C36.4191084,54.1014597 42.1543165,51.7215792 45.0461785,46.5399682 C46.0310161,44.7750552 46.7111958,42.6833276 47,40.5573188 C46.9889215,40.5683649 46.9786071,40.5799825 46.9675286,40.5906478 C46.7837789,40.7673866 46.5931528,40.9338412 46.3973696,41.0926776"></path>
                    <path d="M34.0904146,46.5474602 C27.9062153,48.2108381 21.8688981,46.8732027 16.8827663,43.006306 C11.5890641,38.9010841 8.28421534,32.561446 7.63570949,26.0108005 C7.18528364,21.4600142 7.92237899,15.239256 11.3181182,11.6984786 C11.6634639,11.3388242 11.538825,9.96181336 11.5012416,10.000812 C8.05967355,13.5894429 7.15249402,19.5468188 7.01117267,24.2260935 C6.77014018,32.2130956 10.4414273,39.9924816 16.8221726,44.9411673 C22.8079085,49.5833274 31.1637012,50.3546343 37.8911344,46.6791514 C39.7630191,45.6565197 41.1908058,44.1058046 42,42.2431002 C41.73845,42.2828525 41.4744073,42.3105472 41.2082553,42.3265611 C39.6343534,44.5888605 36.6439783,45.8607446 34.0904146,46.5474602"></path>
                    <path d="M43,34.7207217 C42.9268216,33.9245132 42.8016434,33.1488608 42.6051808,32.4159196 C42.549393,32.3188489 42.4901615,32.2236053 42.4223208,32.1311026 C42.3884005,32.0845087 42.3531026,32.0422543 42.3176326,32 C42.1624943,32.4305373 41.8975023,33.3969052 42.0414486,33.7986638 C42.2692488,34.4340775 42.4300691,35.189859 42.5330355,36 C42.6812864,35.7688574 42.7978553,35.5192143 42.8836032,35.2394221 C42.935603,35.0701764 42.9741723,34.8979615 43,34.7207217"></path>
                    <path d="M35.6993979,41.6623442 C33.5499145,43.1665477 30.4823147,43.4734479 27.9458302,43.1102546 C22.0330105,42.2645493 17.7709188,36.5385518 15.8170995,31.3610845 C14.5531845,28.0124878 14.0724904,24.246275 14.7083988,20.719074 C15.3038575,17.4149881 16.9626754,14.3072734 18.7714399,11.5135657 C20.6025928,8.68507215 22.8122806,5.96280609 25.3156527,3.68714428 C25.6742448,3.36116807 25.5623024,1.94093666 25.4955132,2.00190525 C17.384294,9.37555073 11.7999643,20.3272667 14.8412247,31.3062876 C16.5337194,37.4179208 21.3152618,43.9323955 28.0233433,44.8925572 C31.0435321,45.3243868 34.9744999,44.4721358 37,42.0161865 C36.6664303,41.8351509 36.3462184,41.6337302 36.0419983,41.4106151 C35.9293033,41.4966443 35.8154794,41.5809905 35.6993979,41.6623442"></path>
                    <path d="M22.7412334,23.6500792 C22.219767,19.7017257 22.6691639,16.3413964 24.9301096,13.048079 C26.8042948,10.3181575 29.47898,8.18656971 32.2478084,6.45247104 C37.5326558,3.14330751 43.6127208,1.40157215 49.8182471,1.8908923 C57.3040452,2.48178027 65.7629707,5.59735401 70.5122019,11.74698 C70.6227588,11.8899768 71.2053523,10.4317531 70.9240547,10.0676744 C65.6386413,3.22368354 56.1239538,0.229723898 47.8425608,0.00730564882 C41.1980141,-0.170819868 34.2731132,2.92890777 29.162591,7.05252302 C26.6909079,9.04665058 24.6097587,11.5455626 23.2955274,14.46411 C21.8913035,17.5825475 21.8443262,20.9764782 22.1582626,24.3276434 C22.320702,26.0626967 22.7504779,28.8932314 23.8658577,31 C23.9047224,30.3749379 24.037353,29.7859591 24.2607308,29.2433731 C23.3425046,27.4359623 22.9374437,25.1350312 22.7412334,23.6500792"></path>
                    <path d="M25,38.1899792 L26.6033477,37.4452091 C26.7551754,37.9982073 27.0338215,38.4198684 27.4386954,38.710785 C27.8437662,39.0009115 28.36128,39.1464686 28.9914338,39.1464686 C29.5877169,39.1464686 30.0619077,38.9801741 30.4134154,38.6469927 C30.76512,38.3144038 30.9407754,37.8684502 30.9407754,37.3097246 C30.9407754,36.5819394 30.3387815,35.9331541 29.1349908,35.3631709 C28.9662277,35.2786412 28.8366523,35.2162314 28.7468554,35.176929 C27.3851323,34.5111587 26.4781046,33.9089832 26.0251815,33.3702049 C25.5722585,32.8312292 25.3459938,32.1723714 25.3459938,31.3936314 C25.3459938,30.3840147 25.6876554,29.5655774 26.3711754,28.9391094 C27.0548923,28.3130365 27.9504985,28 29.0589785,28 C29.9705354,28 30.7328246,28.1763669 31.3460431,28.5287058 C31.9592615,28.8816371 32.3840246,29.3880255 32.6203323,30.0478708 L31.0506585,30.8605806 C30.8029292,30.4711119 30.5315692,30.1865154 30.2361846,30.0058034 C29.9409969,29.8250915 29.6018954,29.7348343 29.2192738,29.7348343 C28.6793108,29.7348343 28.2502154,29.8758489 27.9323815,30.1578779 C27.6145477,30.440302 27.4556308,30.8183158 27.4556308,31.2921167 C27.4556308,32.0370843 28.1533292,32.731097 29.5485292,33.3741549 C29.6552615,33.4251098 29.7397415,33.4646096 29.8017723,33.4926545 C31.0224985,34.0569102 31.8608,34.6083284 32.31648,35.1473041 C32.77216,35.6860824 33,36.3591602 33,37.165945 C33,38.3396837 32.6315569,39.2720781 31.8944738,39.9631284 C31.1573908,40.6543761 30.1615508,41 28.9071508,41 C27.8549908,41 26.9928615,40.7572733 26.3207631,40.2720174 C25.6482708,39.786959 25.2081477,39.0929462 25,38.1899792"></path>
                    <path d="M44.9398801,34.5000987 C44.9398801,33.8736308 44.8276474,33.2783677 44.6033758,32.7143096 C44.3791042,32.1500539 44.0563624,31.6478131 43.635732,31.207587 C43.2257627,30.7732859 42.7510512,30.439117 42.211016,30.2046853 C41.6711747,29.9706486 41.1020636,29.8535314 40.5040706,29.8535314 C39.9058838,29.8535314 39.3369666,29.9692661 38.7971252,30.2003403 C38.2568962,30.4318095 37.7765634,30.7675585 37.355933,31.207587 C36.9349149,31.6422831 36.61353,32.141759 36.3923598,32.7060146 C36.1706081,33.2700728 36.059926,33.8682983 36.059926,34.5000987 C36.059926,35.1265667 36.1706081,35.7188673 36.3923598,36.2771979 C36.61353,36.8359236 36.9349149,37.3353995 37.355933,37.7756255 C37.7765634,38.2156541 38.2555393,38.551403 38.7928608,38.7824772 C39.3297945,39.013749 39.9004563,39.1294836 40.5040706,39.1294836 C41.0966361,39.1294836 41.659932,39.013749 42.1945397,38.7824772 C42.7289536,38.551403 43.2090925,38.2156541 43.635732,37.7756255 C44.0563624,37.3353995 44.3791042,36.8345411 44.6033758,36.273248 C44.8276474,35.7115598 44.9398801,35.1208392 44.9398801,34.5000987 M47,34.5000987 C47,35.3803534 46.8379507,36.2124182 46.513852,36.9970831 C46.1899472,37.780958 45.7177556,38.4806982 45.097665,39.0957112 C44.4717592,39.7107242 43.765604,40.1821552 42.9793934,40.5094116 C42.1931828,40.836273 41.3680106,41 40.5040706,41 C39.628888,41 38.7942176,40.835088 37.9994781,40.5048691 C37.2047386,40.1746502 36.5028479,39.7049967 35.8938061,39.0957112 C35.2735216,38.4806982 34.8028807,37.7839205 34.4814958,37.0053781 C34.1603048,36.2266381 34,35.3916108 34,34.5000987 C34,33.6143141 34.1603048,32.7788919 34.4814958,31.9948194 C34.8028807,31.2105495 35.2735216,30.5082418 35.8938061,29.8873038 C36.5140906,29.2722908 37.2173381,28.8040199 38.0037426,28.4824909 C38.7899532,28.160567 39.6236543,28 40.5040706,28 C41.3790594,28 42.2081084,28.160567 42.991993,28.4824909 C43.7754898,28.8040199 44.4773805,29.2722908 45.097665,29.8873038 C45.7177556,30.5135743 46.1899472,31.220227 46.513852,32.0074594 C46.8379507,32.7944943 47,33.6255716 47,34.5000987"></path>
                    <polygon points="49 40 49 28 50.854476 28 50.854476 38.2544272 55 38.2544272 55 40"></polygon>
                    <polygon points="60.9467265 29.6556473 60.9467265 40 59.069106 40 59.069106 29.6556473 56 29.6556473 56 28 64 28 64 29.6556473"></polygon>
                    <polygon points="66 40 66 28 72 28 72 29.6554824 67.7481934 29.6554824 67.7481934 32.6638507 72 32.6638507 72 34.377098 67.7481934 34.377098 67.7481934 38.2544272 72 38.2544272 72 40"></polygon>
                    <path d="M75.8930179,33.1146851 L76.2348411,33.1146851 C77.2365576,33.1146851 77.9020181,32.9945646 78.2310369,32.7539411 C78.559499,32.5137 78.72373,32.0873488 78.72373,31.4754611 C78.72373,30.8142245 78.5476224,30.3484706 78.1948504,30.0780082 C77.842264,29.8071632 77.1890513,29.6721233 76.2348411,29.6721233 L75.8930179,29.6721233 L75.8930179,33.1146851 Z M75.7733241,34.6314934 L75.7733241,40 L74,40 L74,28 L76.6401299,28 C77.4143354,28 78.0148457,28.0518354 78.4414753,28.1558889 C78.8682904,28.2595597 79.2327534,28.4318982 79.5350499,28.6721392 C79.8952447,28.9617291 80.1739736,29.336245 80.3701229,29.7951129 C80.5660868,30.2541722 80.6642542,30.7568421 80.6642542,31.3031226 C80.6642542,32.265043 80.4389701,33.0177088 79.9884018,33.5616941 C79.5378334,34.1052967 78.8725586,34.4318026 77.9923916,34.5410205 L82,40 L79.8612851,40 L75.9882162,34.6314934 L75.7733241,34.6314934 Z"></path>
                    <path d="M84.8927006,33.1146851 L85.2345,33.1146851 C86.2361469,33.1146851 86.9013755,32.9945646 87.2305569,32.7539411 C87.5591817,32.5137 87.7237724,32.0873488 87.7237724,31.4754611 C87.7237724,30.8142245 87.5471204,30.3484706 87.1943729,30.0780082 C86.8423677,29.8071632 86.1884582,29.6721233 85.2345,29.6721233 L84.8927006,29.6721233 L84.8927006,33.1146851 Z M84.7733862,34.6314934 L84.7733862,40 L83,40 L83,28 L85.6401317,28 C86.4140978,28 87.0143808,28.0518354 87.4409807,28.1558889 C87.8677661,28.2595597 88.2320182,28.4318982 88.5344792,28.6721392 C88.8953912,28.9617291 89.1731728,29.336245 89.3696797,29.7951129 C89.5654443,30.2541722 89.6639761,30.7568421 89.6639761,31.3031226 C89.6639761,32.265043 89.4383365,33.0177088 88.9877995,33.5616941 C88.5372625,34.1052967 87.872034,34.4318026 86.9919282,34.5410205 L91,40 L88.8606917,40 L84.9878923,34.6314934 L84.7733862,34.6314934 Z"></path>
                    <path d="M95.3019614,36.088849 L98.756929,36.088849 L97.4870313,33.2358371 C97.4135171,33.0534627 97.3370387,32.8445794 97.2581888,32.607991 C97.1789437,32.3718014 97.1000939,32.1083054 97.021244,31.818101 C96.9530656,32.0911642 96.8815276,32.3462889 96.8050492,32.5824786 C96.7287683,32.8188676 96.6513018,33.0365209 96.5720567,33.2358371 L95.3019614,36.088849 Z M100.874413,41 L99.4685539,37.7800469 L94.5567413,37.7800469 L93.1168915,41 L91,41 L97.0040512,28 L103,41 L100.874413,41 Z"></path>
                </g>
            </g>
        </g>
    </g>
</svg>