<?xml version="1.0" encoding="UTF-8"?>
<svg width="107px" height="89px" viewBox="0 0 107 89" version="1.1" xmlns="http://www.w3.org/2000/svg" xmlns:xlink="http://www.w3.org/1999/xlink">
    <!-- Generator: Sketch 51.3 (57544) - http://www.bohemiancoding.com/sketch -->
    <title>“</title>
    <desc>Created with Sketch.</desc>
    <defs></defs>
    <g id="Page-1" stroke="none" stroke-width="1" fill="none" fill-rule="evenodd">
        <g id="“" fill="#F4F6F9" fill-rule="nonzero">
            <path d="M83.46,88.3613 C76.8973,88.3613 71.3333,85.9406 66.768,81.0992 C62.2027,75.973 59.92,69.138 59.92,60.5943 C59.92,48.3484 61.7747,38.3807 65.484,30.6914 C69.1933,22.7173 73.3307,16.4519 77.896,11.8953 C83.032,6.7691 89.1667,2.92444 96.3,0.361328 L100.58,7.1963 C95.7293,9.4746 91.4493,12.1801 87.74,15.3128 C84.6013,18.1607 81.6053,21.5782 78.752,25.5652 C76.184,29.2675 74.9,33.8241 74.9,39.2351 C74.9,41.2286 75.1853,42.795 75.756,43.9341 C76.0413,44.7885 76.4693,45.3581 77.04,45.6429 C77.6107,45.3581 78.4667,45.0733 79.608,44.7885 C80.464,44.5037 81.32,44.2189 82.176,43.9341 C83.3173,43.6493 84.4587,43.507 85.6,43.507 C92.1627,43.507 97.2987,45.5005 101.008,49.4875 C105.003,53.1898 107,58.316 107,64.8662 C107,71.4164 104.717,76.9697 100.152,81.5264 C95.5867,86.083 90.0227,88.3613 83.46,88.3613 Z M23.54,88.3613 C16.9773,88.3613 11.4133,85.9406 6.848,81.0992 C2.28267,75.973 0,69.138 0,60.5943 C0,48.3484 1.85467,38.3807 5.564,30.6914 C9.27333,22.7173 13.4107,16.4519 17.976,11.8953 C23.112,6.7691 29.2467,2.92444 36.38,0.361328 L40.66,7.1963 C35.8093,9.4746 31.5293,12.1801 27.82,15.3128 C24.6813,18.1607 21.6853,21.5782 18.832,25.5652 C16.264,29.2675 14.98,33.8241 14.98,39.2351 C14.98,41.2286 15.2653,42.795 15.836,43.9341 C16.1213,44.7885 16.5493,45.3581 17.12,45.6429 C17.6907,45.3581 18.5467,45.0733 19.688,44.7885 C20.544,44.5037 21.4,44.2189 22.256,43.9341 C23.3973,43.6493 24.5387,43.507 25.68,43.507 C32.2427,43.507 37.3787,45.5005 41.088,49.4875 C45.0827,53.1898 47.08,58.316 47.08,64.8662 C47.08,71.4164 44.7973,76.9697 40.232,81.5264 C35.6667,86.083 30.1027,88.3613 23.54,88.3613 Z" id="Shape"></path>
        </g>
    </g>
</svg>